<?xml version="1.0" encoding="utf-8"?>
<!-- Generator: Adobe Illustrator 21.0.0, SVG Export Plug-In . SVG Version: 6.00 Build 0)  -->
<svg version="1.1" id="Capa_1" xmlns="http://www.w3.org/2000/svg" xmlns:xlink="http://www.w3.org/1999/xlink" x="0px" y="0px"
	 viewBox="0 0 739.4 246.9" style="enable-background:new 0 0 739.4 246.9;" xml:space="preserve">
<style type="text/css">
	.st0{fill:#0094B9;}
	.st1{fill:#878787;}
	.st2{fill:url(#SVGID_1_);}
	.st3{fill:#1D1D1B;}
	.st4{fill:#231F20;}
</style>
<g>
	<polygon class="st0" points="568.4,14.5 499,197.9 502,199 571.4,15.7 	"/>
	<path class="st0" d="M583.9,151l4-3.4c8.1,10.8,20.1,17.9,35,17.9c16,0,29.5-10.5,29.5-25.5v-0.3c0-17.6-15.5-25.5-37.4-25.5h-4.5
		l-1.5-3.1l39.9-45.8h-59.2v-4.9h66.3v3.7l-39.4,45.4c24.1,0.5,41.1,9.9,41.1,30.1v0.3c0,17.9-16.1,30.4-34.8,30.4
		C605.7,170.3,592.4,162.2,583.9,151"/>
	<path class="st0" d="M651,114.6v-0.3c0-29.5,16.6-55.7,44.2-55.7c27.8,0,44.2,25.9,44.2,55.7v0.3c0,29.5-16.6,55.7-44.2,55.7
		C667.4,170.3,651,144.3,651,114.6 M734,114.7v-0.3c0-26.5-14.6-51.1-39-51.1c-24.4,0-38.7,24.1-38.7,50.8v0.3
		c0,26.5,14.6,51.1,39,51.1C719.7,165.5,734,141.3,734,114.7"/>
	<path class="st1" d="M598,205.5L596,201h-9.6l-2.1,4.6h-1.2l7.6-16.4h1.2l7.6,16.4H598z M591.2,190.4l-4.3,9.4h8.5L591.2,190.4z"/>
	<path class="st1" d="M632.5,205.5L621.1,191v14.5h-1.2v-16.3h1.1l11.2,14.2v-14.2h1.2v16.3H632.5z M629.3,187.3
		c-0.3,0.3-0.7,0.5-1.2,0.5c-0.2,0-0.5-0.1-0.7-0.2c-0.3-0.1-0.5-0.2-0.8-0.3c-0.3-0.1-0.5-0.2-0.8-0.3c-0.2-0.1-0.5-0.2-0.7-0.2
		c-0.3,0-0.5,0.1-0.7,0.2c-0.2,0.2-0.3,0.5-0.5,0.9l-0.8-0.2c0.2-0.8,0.5-1.4,0.8-1.7c0.3-0.3,0.7-0.5,1.2-0.5
		c0.2,0,0.5,0.1,0.7,0.2c0.3,0.1,0.5,0.2,0.8,0.3c0.3,0.1,0.5,0.2,0.8,0.3c0.2,0.1,0.5,0.2,0.7,0.2c0.3,0,0.5-0.1,0.7-0.2
		c0.2-0.2,0.3-0.5,0.5-0.9l0.8,0.2C629.9,186.4,629.6,186.9,629.3,187.3"/>
	<path class="st1" d="M670.4,200.6c-0.4,1-0.9,1.9-1.7,2.7c-0.7,0.8-1.6,1.4-2.6,1.9c-1,0.5-2.1,0.7-3.3,0.7c-1.2,0-2.4-0.2-3.3-0.7
		c-1-0.5-1.9-1.1-2.6-1.8c-0.7-0.8-1.3-1.7-1.6-2.7c-0.4-1-0.6-2.1-0.6-3.2v0c0-1.1,0.2-2.2,0.6-3.2c0.4-1,0.9-1.9,1.7-2.7
		c0.7-0.8,1.6-1.4,2.6-1.9c1-0.5,2.1-0.7,3.4-0.7c1.2,0,2.3,0.2,3.3,0.7c1,0.5,1.9,1.1,2.6,1.8c0.7,0.8,1.3,1.7,1.6,2.7
		c0.4,1,0.6,2.1,0.6,3.2c0,0,0,0,0,0C671,198.5,670.8,199.6,670.4,200.6 M669.7,197.4c0-1-0.2-2-0.5-2.9c-0.3-0.9-0.8-1.7-1.4-2.3
		c-0.6-0.7-1.3-1.2-2.2-1.6c-0.8-0.4-1.8-0.6-2.8-0.6c-1,0-1.9,0.2-2.8,0.6c-0.8,0.4-1.6,0.9-2.2,1.6c-0.6,0.7-1.1,1.4-1.4,2.3
		c-0.3,0.9-0.5,1.8-0.5,2.8v0c0,1,0.2,2,0.5,2.9c0.3,0.9,0.8,1.7,1.4,2.3c0.6,0.7,1.3,1.2,2.2,1.6c0.9,0.4,1.8,0.6,2.8,0.6
		c1,0,1.9-0.2,2.8-0.6c0.8-0.4,1.6-0.9,2.2-1.6c0.6-0.7,1.1-1.4,1.4-2.3C669.6,199.4,669.7,198.4,669.7,197.4L669.7,197.4z"/>
	<path class="st1" d="M702.6,203.1c-0.3,0.6-0.6,1-1.1,1.4c-0.5,0.4-1,0.7-1.7,0.9c-0.7,0.2-1.4,0.3-2.2,0.3c-1.3,0-2.5-0.2-3.5-0.7
		c-1-0.4-2.1-1.1-3-2l0.8-0.9c0.4,0.4,0.9,0.8,1.3,1.1c0.4,0.3,0.9,0.6,1.4,0.7c0.5,0.2,0.9,0.3,1.5,0.4c0.5,0.1,1.1,0.2,1.7,0.2
		c0.6,0,1.2-0.1,1.7-0.2c0.5-0.2,0.9-0.4,1.3-0.7c0.4-0.3,0.6-0.6,0.8-1c0.2-0.4,0.3-0.8,0.3-1.3v0c0-0.4-0.1-0.8-0.2-1.2
		c-0.1-0.3-0.4-0.7-0.7-0.9c-0.3-0.3-0.8-0.5-1.4-0.8c-0.6-0.2-1.3-0.4-2.3-0.6c-1-0.2-1.8-0.4-2.5-0.7c-0.7-0.3-1.3-0.6-1.7-1
		c-0.4-0.4-0.8-0.8-1-1.3c-0.2-0.5-0.3-1-0.3-1.7v0c0-0.6,0.1-1.2,0.4-1.7c0.3-0.5,0.6-1,1.1-1.4c0.5-0.4,1-0.7,1.6-0.9
		c0.6-0.2,1.3-0.3,2.1-0.3c1.2,0,2.2,0.2,3,0.5s1.7,0.8,2.5,1.5l-0.8,1c-0.8-0.7-1.5-1.1-2.3-1.4c-0.8-0.3-1.6-0.4-2.5-0.4
		c-0.6,0-1.1,0.1-1.6,0.2c-0.5,0.2-0.9,0.4-1.3,0.7c-0.3,0.3-0.6,0.6-0.8,1c-0.2,0.4-0.3,0.8-0.3,1.2v0c0,0.4,0.1,0.8,0.2,1.2
		c0.1,0.3,0.4,0.7,0.7,1c0.3,0.3,0.8,0.5,1.4,0.8c0.6,0.2,1.4,0.5,2.4,0.7c1.9,0.4,3.2,0.9,4.1,1.6c0.8,0.7,1.2,1.7,1.2,2.9v0
		C703,202,702.8,202.6,702.6,203.1"/>
	<radialGradient id="SVGID_1_" cx="265.2963" cy="21.3632" r="29.9751" gradientUnits="userSpaceOnUse">
		<stop  offset="0" style="stop-color:#FFFFFF"/>
		<stop  offset="1" style="stop-color:#0094B9"/>
	</radialGradient>
	<path class="st2" d="M230.2,30.1c0,16.6,13.4,30,29.9,30s29.9-13.5,29.9-30C290,13.5,276.6,0,260.1,0S230.2,13.5,230.2,30.1"/>
	<g>
		<rect x="0.2" y="176.9" class="st0" width="487" height="1.9"/>
	</g>
	<path class="st3" d="M10.8,26.8c-0.9-0.5-1.9-0.8-3-0.8c-3.3,0-5.5,2.4-5.5,5.7c0,3.4,2.4,5.7,5.4,5.7c1,0,2.4-0.3,3.1-0.7l0.1,2
		c-1.1,0.5-2.4,0.5-3.3,0.5c-4.5,0-7.6-2.9-7.6-7.5c0-4.5,3.2-7.4,7.6-7.4c1.1,0,2.2,0.2,3.2,0.6L10.8,26.8z"/>
	<path class="st3" d="M25.4,24.2c4.4,0,6.9,3.2,6.9,7.5c0,4.4-2.5,7.5-6.9,7.5c-4.4,0-6.9-3.1-6.9-7.5C18.5,27.4,21,24.2,25.4,24.2
		 M25.4,37.3c3.3,0,4.7-2.8,4.7-5.6c0-2.9-1.6-5.7-4.7-5.6c-3.2,0-4.7,2.7-4.7,5.6C20.6,34.6,22.1,37.3,25.4,37.3"/>
	<polygon class="st3" points="40.9,24.5 43.7,24.5 50.1,36.1 50.1,36.1 50.1,24.5 52.2,24.5 52.2,38.9 49.5,38.9 43,27 43,27 
		43,38.9 40.9,38.9 	"/>
	<path class="st3" d="M68,26.6C67,26.2,66.4,26,65.3,26c-1.2,0-2.5,0.4-2.5,1.9c0,2.8,6.2,2.1,6.2,6.9c0,3.1-2.4,4.3-5.3,4.3
		c-1,0-2-0.3-2.9-0.6l0.2-1.9c0.7,0.3,1.9,0.7,3,0.7c1.2,0,2.8-0.7,2.8-2.4c0-3.2-6.2-2.3-6.2-6.8c0-2.6,2-3.9,4.6-3.9
		c0.9,0,2.1,0.2,3.1,0.5L68,26.6z"/>
	<polygon class="st3" points="80.4,26.3 75.9,26.3 75.9,24.5 86.9,24.5 86.9,26.3 82.4,26.3 82.4,38.9 80.4,38.9 	"/>
	<path class="st3" d="M94.5,24.5h3.5c2.8,0,5.6,0.5,5.6,3.9c0,1.8-1.3,3-3,3.3v0c0.6,0.2,0.9,0.6,1.4,1.4l2.7,5.8h-2.3l-2.2-5
		c-0.6-1.4-1.3-1.4-2.4-1.4h-1.2v6.4h-2.1V24.5z M96.6,30.7h1.7c2,0,3.1-0.9,3.1-2.3c0-1.3-1-2.1-2.9-2.1h-2V30.7z"/>
	<path class="st3" d="M124.1,32.9c0,4.1-2,6.2-5.6,6.2c-3.5,0-5.6-2.2-5.6-6.2v-8.5h2.1v8.2c0,2.8,0.9,4.7,3.5,4.7
		c2.7,0,3.5-1.9,3.5-4.7v-8.2h2.1V32.9z"/>
	<path class="st3" d="M143.4,26.8c-0.9-0.5-1.9-0.8-3-0.8c-3.3,0-5.5,2.4-5.5,5.7c0,3.4,2.4,5.7,5.4,5.7c1,0,2.4-0.3,3.1-0.7l0.1,2
		c-1.1,0.5-2.4,0.5-3.3,0.5c-4.6,0-7.6-2.9-7.6-7.5c0-4.5,3.2-7.4,7.6-7.4c1.1,0,2.2,0.2,3.2,0.6L143.4,26.8z"/>
	<polygon class="st3" points="154.7,26.3 150.2,26.3 150.2,24.5 161.2,24.5 161.2,26.3 156.7,26.3 156.7,38.9 154.7,38.9 	"/>
	<path class="st3" d="M175.1,24.2c4.4,0,6.9,3.2,6.9,7.5c0,4.4-2.5,7.5-6.9,7.5c-4.4,0-6.9-3.1-6.9-7.5
		C168.2,27.4,170.8,24.2,175.1,24.2 M175.1,37.3c3.3,0,4.7-2.8,4.7-5.6c0-2.9-1.6-5.7-4.7-5.6c-3.2,0-4.7,2.7-4.7,5.6
		C170.4,34.6,171.8,37.3,175.1,37.3"/>
	<path class="st3" d="M190.6,24.5h3.5c2.8,0,5.6,0.5,5.6,3.9c0,1.8-1.3,3-3,3.3v0c0.6,0.2,0.9,0.6,1.4,1.4l2.7,5.8h-2.3l-2.2-5
		c-0.6-1.4-1.3-1.4-2.4-1.4h-1.2v6.4h-2.1V24.5z M192.6,30.7h1.8c2,0,3.1-0.9,3.1-2.3c0-1.3-1-2.1-2.9-2.1h-2V30.7z"/>
	<path class="st3" d="M213.5,24.5h2.2l6.1,14.4h-2.2l-1.5-3.6h-7l-1.5,3.6h-2.2L213.5,24.5z M214.5,26.4l-2.9,7.2h5.7L214.5,26.4z"
		/>
	<path class="st3" d="M397,172.2L373.3,106l-25.1,66.2h-25l50.2-131l50.7,131H397z M175.7,170.3v-91h29.4c28.2,0,41.4,9.6,41.4,30.5
		c0,18.8-13.6,29.9-36.7,29.9h-9.5v32.5h-23.9h-0.7h-26.3L125.7,106l-25.1,66.2h-25l0.4-0.9c-5.8,1.3-12.7,2.5-22.4,2.5
		c-24.6,0-53.1-12.5-53.1-47.6c0-32.3,22.5-48.4,52.9-48.4c9.4,0,18.5,2.1,27.4,4.8l-2,20.1c-7.9-4.4-15.6-6.5-24.1-6.5
		c-17.5,0-28.9,12.8-28.9,30.1c0,18.2,12.8,29.3,30.8,29.3c8.1,0,16.3-2.1,23-4.8l0.6,9.2l45.4-118.7L175.7,170.3z M200.3,96.9v25.3
		h6.4c8.5,0,15.2-3.1,15.2-12.8c0-9.4-6.8-12.5-15.2-12.5H200.3z M247.8,79.3h24.6v92.9h-24.6V79.3z M298,172.2V97.7h-22.8V79.3
		h70.2v18.4h-22.8v74.5H298z M424.5,172.2V79.3h24.6v74.5h38.1v18.4H424.5z"/>
	<polygon class="st0" points="21.8,204.9 11.8,204.9 5,237.2 3.1,237.2 10,204.9 0,204.9 0.3,203.3 22.2,203.3 	"/>
	<path class="st0" d="M31.8,233.7l-0.1,3.5H30l0.1-3.2c-0.7,1.2-1.7,2.1-3.1,2.8c-1.4,0.6-3.3,0.9-5.7,0.9c-2.6,0-4.3-0.4-5.4-1.2
		c-1-0.8-1.5-2-1.5-3.6c0-0.4,0-0.8,0-1.2c0-0.5,0.1-1,0.2-1.6c0.1-0.6,0.2-1.1,0.3-1.5c0.1-0.4,0.2-1,0.4-1.8
		c0.2-0.9,0.3-1.5,0.4-1.8l2.6-12.1H20l-2.6,12.1c-0.1,0.3-0.2,0.9-0.4,1.7c-0.2,0.8-0.3,1.4-0.4,1.7c0,0.3-0.1,0.8-0.2,1.4
		c-0.1,0.6-0.2,1-0.2,1.4c0,0.4,0,0.7,0,1.1c0,1.4,0.4,2.3,1.3,3c0.9,0.6,2.4,0.9,4.6,0.9c1.2,0,2.1-0.1,2.9-0.2
		c0.9-0.1,1.6-0.4,2.2-0.7c0.6-0.4,1.1-0.8,1.5-1.2c0.4-0.4,0.8-1,1.1-1.7c0.4-0.8,0.6-1.5,0.8-2.2c0.2-0.8,0.5-1.7,0.7-3l3-14.4
		h1.7L31.8,233.7z"/>
	<polygon class="st0" points="59.8,237.2 57.3,237.2 54.4,213 56.2,213 58.8,235.9 71.1,213 73,213 	"/>
	<path class="st0" d="M73.9,237.2h-1.8l5.1-24.3H79L73.9,237.2z M80.3,207.1h-1.9l0.8-3.8h1.9L80.3,207.1z"/>
	<path class="st0" d="M98.8,233.7l-0.1,3.5h-1.6l0.1-3.3c-0.7,1.3-1.8,2.2-3.2,2.8c-1.4,0.6-3.2,0.9-5.6,0.9c-2.7,0-4.6-0.4-5.6-1.2
		c-1.1-0.8-1.6-2-1.6-3.7c0-1.2,0.4-3.7,1.3-7.8c0.1-0.2,0.1-0.6,0.2-1c0.3-1.6,0.5-2.7,0.7-3.4c0.2-0.8,0.5-1.7,0.9-2.8
		c0.4-1.2,0.8-1.9,1.3-2.4c0.5-0.5,1-1,1.7-1.6c0.8-0.6,1.6-0.9,2.7-1.1c1.1-0.2,2.3-0.3,3.7-0.3c2.4,0,4.1,0.3,5.2,0.9
		c1.1,0.6,1.7,1.5,1.9,2.8l2.7-12.9h1.8L98.8,233.7z M94,213.8c-1.2,0-2.3,0-3.1,0.2c-0.9,0.1-1.6,0.4-2.3,0.9
		c-0.6,0.4-1.1,0.8-1.5,1.3c-0.4,0.4-0.7,1.1-1.1,2.1c-0.3,1-0.6,1.8-0.8,2.5c-0.1,0.7-0.4,1.7-0.7,3.3c-0.1,0.4-0.1,0.8-0.2,1
		c-0.8,3.8-1.2,6.2-1.2,7.2c0,1.5,0.4,2.5,1.3,3.2c0.9,0.6,2.5,1,4.8,1c1.2,0,2.2,0,3.1-0.2c0.9-0.2,1.6-0.5,2.3-0.9
		c0.7-0.5,1.2-0.9,1.5-1.3c0.4-0.4,0.7-1.1,1.1-2.1c0.4-1,0.6-1.8,0.8-2.5c0.2-0.7,0.4-1.8,0.7-3.3c0.1-0.5,0.2-0.8,0.2-1
		c0.8-3.8,1.2-6.2,1.2-7.2c0-1.5-0.4-2.5-1.4-3.1C97.9,214.1,96.3,213.8,94,213.8"/>
	<path class="st0" d="M123.4,233.7l-0.1,3.5h-1.6l0.1-3.3c-0.7,1.3-1.8,2.2-3.2,2.8c-1.4,0.6-3.2,0.9-5.6,0.9
		c-2.7,0-4.6-0.4-5.6-1.2c-1.1-0.8-1.6-2-1.6-3.7c0-1.2,0.4-3.7,1.3-7.8c0.1-0.2,0.1-0.6,0.2-1c0.3-1.6,0.5-2.8,0.7-3.5
		c0.2-0.8,0.5-1.7,0.9-2.8c0.4-1.1,0.8-1.9,1.3-2.4c0.5-0.5,1.1-1,1.8-1.6c0.8-0.6,1.6-0.9,2.7-1.1c1.1-0.2,2.3-0.3,3.7-0.3
		c2.4,0,4.1,0.3,5.2,0.9c1.2,0.6,1.8,1.5,2,2.8l0.7-3.2h1.5L123.4,233.7z M118.5,213.8c-1.2,0-2.3,0-3.1,0.2
		c-0.9,0.1-1.6,0.4-2.3,0.9c-0.6,0.4-1.1,0.8-1.5,1.3c-0.4,0.4-0.7,1.1-1.1,2.1c-0.3,1-0.6,1.8-0.8,2.5c-0.1,0.7-0.4,1.7-0.7,3.3
		c-0.1,0.4-0.1,0.8-0.2,1c-0.8,3.8-1.2,6.2-1.2,7.2c0,1.5,0.4,2.5,1.3,3.2c0.9,0.6,2.5,1,4.8,1c1.2,0,2.2,0,3.1-0.2
		c0.9-0.2,1.6-0.5,2.3-0.9c0.7-0.5,1.2-0.9,1.5-1.3c0.4-0.4,0.7-1.1,1.1-2.1c0.4-1,0.6-1.8,0.8-2.5c0.2-0.7,0.4-1.8,0.7-3.3
		c0.1-0.5,0.2-0.8,0.2-1c0.8-3.8,1.2-6.2,1.2-7.2c0-1.5-0.4-2.5-1.4-3.1C122.4,214.1,120.8,213.8,118.5,213.8"/>
	<path class="st0" d="M132,233.3l-1,4.4c-0.3,1.6-1.4,2.7-3.2,3.3l-0.5-1.3c1-0.5,1.6-1.2,1.8-2.1l0.9-4.4H132z"/>
	<path class="st4" d="M151.5,213l0.6,3.2c0.5-1.3,1.3-2.2,2.5-2.8c1.3-0.6,3.1-0.9,5.5-0.9c1.2,0,2.1,0,2.9,0.2
		c0.9,0.1,1.5,0.3,2.1,0.6c0.6,0.2,1.1,0.6,1.5,1.1c0.4,0.4,0.8,0.9,1,1.4c0.2,0.4,0.4,1,0.5,1.8c0.1,0.7,0.2,1.4,0.2,2.1
		c0,0.6,0,1.5,0,2.5v1.5v1.6v12.1h-1.8v-12.1v-1.5c0-0.7,0-1.1,0-1.4c0-1.1,0-2,0-2.7c0-0.7-0.1-1.4-0.3-2.1
		c-0.1-0.7-0.4-1.3-0.7-1.7c-0.3-0.4-0.6-0.7-1.2-1.1c-0.5-0.4-1.2-0.6-2-0.7c-0.8-0.1-1.7-0.2-2.8-0.2c-1.1,0-2.1,0-2.9,0.2
		c-0.8,0.1-1.4,0.3-2,0.7c-0.5,0.3-1,0.7-1.3,1.2c-0.3,0.4-0.5,1-0.7,1.7c-0.1,0.8-0.2,1.5-0.3,2.2c0,0.7-0.1,1.7-0.1,3v14.4h-1.7
		v-20.7l-0.6-3.5H151.5z"/>
	<path class="st4" d="M192.4,233.7l0.6,3.5h-1.6l-0.6-3.2c-0.4,1.2-1.3,2.1-2.5,2.8c-1.3,0.6-3.1,0.9-5.5,0.9c-1.1,0-2,0-2.9-0.2
		c-0.8-0.2-1.5-0.4-2.1-0.6c-0.6-0.3-1.1-0.6-1.5-1.1c-0.4-0.5-0.7-0.9-1-1.4c-0.2-0.5-0.4-1.1-0.5-1.8c-0.1-0.8-0.2-1.5-0.2-2.1
		c0-0.7,0-1.5,0-2.5v-1.5v-1.6V213h1.7v12.1v1.5v1.4c0,1.1,0,2,0,2.7c0.1,0.7,0.1,1.4,0.3,2.1c0.2,0.7,0.4,1.3,0.7,1.6
		c0.3,0.4,0.7,0.7,1.3,1.1c0.6,0.3,1.2,0.6,2,0.7c0.8,0.1,1.7,0.2,2.8,0.2c1.2,0,2.1-0.1,2.8-0.2c0.8-0.1,1.5-0.4,2-0.7
		c0.6-0.4,1-0.8,1.3-1.2c0.3-0.4,0.6-1,0.7-1.7c0.2-0.8,0.2-1.5,0.3-2.2c0.1-0.8,0.1-1.7,0.1-3V213h1.7V233.7z"/>
	<path class="st4" d="M215.1,234.5l0.8,1c-1.1,0.9-2.2,1.4-3.3,1.7c-1.1,0.3-2.7,0.5-4.8,0.5c-1.2,0-2.3-0.1-3.2-0.2
		c-0.9-0.2-1.7-0.3-2.4-0.6c-0.6-0.3-1.1-0.7-1.6-1.2c-0.4-0.5-0.7-1-1-1.5c-0.2-0.5-0.4-1.2-0.6-2c-0.1-0.9-0.2-1.6-0.2-2.3
		c0-0.7,0-1.6,0-2.7v-1v-1.1v-1v-1c0-1.2,0-2,0-2.7c0-0.7,0.1-1.5,0.2-2.3c0.1-0.9,0.3-1.5,0.5-2c0.3-0.5,0.6-1,1-1.5
		c0.5-0.5,1-0.9,1.6-1.2c0.7-0.3,1.4-0.4,2.4-0.6c1-0.2,2-0.3,3.2-0.3c1.4,0,2.5,0,3.4,0.2c1,0.2,1.8,0.5,2.4,0.9
		c0.7,0.4,1.2,0.8,1.5,1.3c0.4,0.4,0.7,1,0.9,1.8c0.2,0.8,0.3,1.5,0.4,2.2c0.1,0.7,0.1,1.7,0.1,2.8c0,0.3,0,0.9,0,1.7
		c0,0.8,0,1.4,0,1.7v1.3h-16v2.4c0,0.5,0,1.1,0.1,2c0.1,0.8,0.2,1.4,0.3,1.8c0.1,0.4,0.3,0.8,0.5,1.4c0.2,0.5,0.5,0.9,0.9,1.1
		c0.4,0.2,0.8,0.4,1.3,0.7c0.5,0.2,1.1,0.4,1.8,0.5c0.7,0.1,1.5,0.1,2.4,0.1c2,0,3.4-0.1,4.4-0.3
		C213.2,235.8,214.2,235.3,215.1,234.5 M214.9,225.2v-0.4v-1.5v-1.8c0-0.6,0-1.2,0-1.7c0-0.5,0-1-0.1-1.4c0-0.5-0.1-0.8-0.2-1.2
		c-0.1-0.4-0.2-0.8-0.4-1.1c-0.2-0.3-0.4-0.6-0.7-0.8c-0.2-0.3-0.5-0.4-0.9-0.6c-0.3-0.2-0.7-0.3-1.2-0.4c-0.4-0.1-1-0.2-1.5-0.3
		c-0.6-0.1-1.2-0.1-1.9-0.1c-1,0-1.8,0-2.6,0.2c-0.8,0.1-1.4,0.2-1.9,0.5c-0.5,0.2-0.9,0.5-1.3,1c-0.3,0.4-0.6,0.8-0.8,1.3
		c-0.2,0.4-0.3,1-0.4,1.8c-0.1,0.8-0.1,1.4-0.1,2.1c0,0.6,0,1.5,0,2.6v0.7v0.9v0.4H214.9z"/>
	<path class="st4" d="M220.7,231.3l1.6-0.3c0.3,1.8,0.9,3.3,2,4.1c1.1,0.9,2.9,1.3,5.5,1.3c2.8,0,4.7-0.5,5.7-1.4
		c1.1-0.9,1.6-2.3,1.6-4.3c0-1.8-0.4-3.1-1.5-3.8c-1-0.8-2.9-1.3-5.7-1.7c-3.4-0.5-5.6-1.2-6.9-2c-1.2-0.9-1.8-2.3-1.8-4.2
		c0-4.4,2.8-6.5,8.4-6.5c2.7,0,4.7,0.3,6,1.1c1.3,0.7,2.2,1.8,2.6,3.4l-1.5,0.4c-0.4-1.3-1.1-2.1-2.1-2.7c-1-0.6-2.6-0.9-4.8-0.9
		c-4.5,0-6.8,1.7-6.8,5.2c0,1.5,0.5,2.5,1.4,3.2c1,0.7,2.8,1.2,5.6,1.6c3.3,0.4,5.6,1.1,6.9,2.1c1.4,1,2,2.6,2,4.9
		c0,2.2-0.7,3.9-2.1,5.1c-1.4,1.2-3.7,1.7-7,1.7c-3,0-5.2-0.5-6.6-1.6C221.9,235,221,233.4,220.7,231.3"/>
	<path class="st4" d="M247,213h7.6v1.3H247v13.2c0,1.4,0,2.5,0,3.3c0.1,0.8,0.2,1.6,0.4,2.4c0.2,0.8,0.5,1.5,0.9,1.8
		c0.4,0.4,1,0.7,1.7,1c0.8,0.2,1.7,0.4,2.8,0.4c0.8,0,1.4,0,1.8-0.1l0.1,1.2c-0.6,0.1-1.3,0.2-2.2,0.2c-1,0-1.8,0-2.6-0.2
		c-0.8-0.2-1.4-0.4-1.9-0.7c-0.5-0.3-0.9-0.6-1.3-1.2c-0.3-0.6-0.6-1.1-0.8-1.6c-0.2-0.5-0.3-1.2-0.4-2c-0.1-0.9-0.1-1.6-0.1-2.3
		c0-0.7,0-1.7,0-2.8v-0.7v-0.8v-11.1h-3.5V213h3.5v-6.3h1.7V213z"/>
	<path class="st4" d="M261.1,213l0.6,3.5c0.6-1.5,1.4-2.5,2.5-3.1c1.1-0.6,2.7-0.9,4.6-0.9c2.6,0,4.5,0.6,5.6,1.9l-0.4,1.1
		c-1.1-1.1-2.9-1.7-5.5-1.7c-2,0-3.5,0.3-4.4,1.1c-1,0.8-1.6,2.1-2,4.1v18.2h-1.8v-19.8l-0.8-4.5H261.1z"/>
	<path class="st4" d="M295.8,223.1v1v1.1v1v1c0,1.1,0,2,0,2.7c0,0.7-0.1,1.4-0.2,2.3c-0.1,0.8-0.2,1.5-0.5,2c-0.2,0.5-0.6,1-1.1,1.5
		c-0.4,0.5-1,0.9-1.6,1.2c-0.6,0.3-1.3,0.5-2.3,0.7c-0.9,0.1-2,0.2-3.2,0.2s-2.3-0.1-3.3-0.2c-0.9-0.2-1.7-0.3-2.4-0.6
		c-0.6-0.3-1.1-0.7-1.6-1.2c-0.4-0.5-0.7-1-1-1.5c-0.2-0.5-0.4-1.2-0.6-2c-0.1-0.9-0.2-1.6-0.2-2.3c0-0.7,0-1.6,0-2.7v-1v-1.1v-1v-1
		c0-1.2,0-2,0-2.7c0-0.7,0.1-1.5,0.2-2.3c0.1-0.9,0.3-1.5,0.5-2c0.3-0.5,0.6-1,1-1.5c0.5-0.5,1-0.9,1.6-1.2c0.7-0.3,1.4-0.4,2.4-0.6
		c1-0.2,2-0.3,3.2-0.3c1.3,0,2.3,0,3.2,0.2c1,0.2,1.7,0.4,2.4,0.7c0.7,0.2,1.2,0.6,1.6,1.1c0.5,0.5,0.8,1,1,1.5
		c0.3,0.5,0.5,1.1,0.6,2c0.1,0.8,0.2,1.6,0.2,2.3C295.8,221,295.8,221.9,295.8,223.1 M279.5,223.2v0.9v1v1v1v2.6
		c0,0.6,0.1,1.3,0.2,2.1c0.1,0.8,0.2,1.3,0.4,1.7c0.2,0.4,0.5,0.8,0.8,1.3c0.4,0.4,0.8,0.7,1.3,1c0.6,0.2,1.2,0.4,1.9,0.5
		c0.8,0.1,1.6,0.2,2.6,0.2c1.1,0,1.9-0.1,2.7-0.2c0.8-0.1,1.4-0.3,1.9-0.5c0.5-0.2,1-0.5,1.3-1c0.4-0.5,0.6-0.9,0.8-1.3
		c0.2-0.4,0.3-1,0.4-1.7c0.1-0.8,0.2-1.5,0.2-2.1c0-0.7,0-1.5,0-2.6v-1v-1v-1v-1c0-1.1,0-1.9,0-2.6c0-0.7-0.1-1.3-0.2-2.1
		c-0.1-0.8-0.2-1.4-0.4-1.8c-0.2-0.4-0.4-0.8-0.8-1.3c-0.3-0.5-0.8-0.8-1.3-1c-0.5-0.2-1.1-0.4-1.9-0.5c-0.7-0.1-1.5-0.2-2.6-0.2
		c-1,0-1.9,0-2.7,0.2c-0.7,0.1-1.3,0.3-1.9,0.5c-0.5,0.2-0.9,0.4-1.3,0.9c-0.3,0.4-0.6,0.9-0.8,1.3c-0.2,0.4-0.4,1-0.5,1.7
		c-0.1,0.8-0.1,1.4-0.1,2.1C279.5,221.2,279.5,222,279.5,223.2"/>
	<path class="st4" d="M317.6,213l0.6,3.3c0.5-1.3,1.3-2.2,2.6-2.8c1.3-0.6,3.1-0.9,5.5-0.9c1.2,0,2.2,0,3,0.2
		c0.9,0.1,1.6,0.3,2.2,0.6c0.6,0.2,1.2,0.6,1.5,1.1c0.4,0.5,0.7,1,1,1.5c0.3,0.5,0.4,1.1,0.5,1.9c0.1,0.8,0.2,1.6,0.2,2.3
		c0,0.7,0,1.6,0,2.7v1.1v1.2v1v1c0,1.2,0,2.1,0,2.8c0,0.7,0,1.4-0.2,2.3c-0.1,0.9-0.3,1.6-0.5,2c-0.2,0.5-0.5,1-1,1.5
		c-0.4,0.5-0.9,0.9-1.5,1.2c-0.6,0.3-1.4,0.5-2.2,0.7c-0.9,0.1-1.9,0.2-3,0.2c-2.4,0-4.1-0.3-5.4-0.9c-1.2-0.6-2.1-1.5-2.6-2.8v12.9
		h-1.7v-30.4L316,213H317.6z M318.4,223.2v0.9v1v1v1c0,1.1,0,1.9,0,2.6c0,0.6,0.1,1.3,0.2,2.1c0.1,0.8,0.2,1.4,0.4,1.8
		c0.2,0.4,0.5,0.8,0.8,1.3c0.4,0.4,0.8,0.8,1.3,1c0.5,0.2,1.1,0.3,1.9,0.5c0.8,0.1,1.7,0.2,2.7,0.2c1,0,1.9-0.1,2.6-0.2
		c0.8-0.1,1.4-0.3,1.9-0.5c0.6-0.2,1-0.5,1.3-0.9c0.4-0.5,0.6-0.9,0.8-1.3c0.2-0.4,0.4-1,0.5-1.7c0.1-0.8,0.1-1.5,0.1-2.1
		c0-0.7,0-1.6,0-2.6v-0.9v-1v-1v-1c0-1.1,0-1.9,0-2.6c0-0.7-0.1-1.3-0.2-2.1c-0.1-0.8-0.2-1.4-0.4-1.7c-0.2-0.4-0.4-0.8-0.8-1.3
		c-0.3-0.5-0.7-0.8-1.3-1c-0.5-0.2-1.2-0.4-1.9-0.5c-0.7-0.1-1.6-0.2-2.6-0.2c-1,0-1.8,0-2.6,0.2c-0.8,0.1-1.4,0.2-1.9,0.5
		c-0.5,0.2-0.9,0.5-1.3,1c-0.3,0.4-0.6,0.8-0.8,1.3c-0.2,0.4-0.3,1-0.4,1.7c-0.1,0.8-0.1,1.5-0.2,2.1
		C318.4,221.2,318.4,222.1,318.4,223.2"/>
	<path class="st4" d="M342.3,213l0.6,3.5c0.6-1.5,1.4-2.5,2.5-3.1c1.1-0.6,2.7-0.9,4.6-0.9c2.6,0,4.5,0.6,5.6,1.9l-0.4,1.1
		c-1.1-1.1-2.9-1.7-5.5-1.7c-2,0-3.5,0.3-4.4,1.1c-1,0.8-1.6,2.1-2,4.1v18.2h-1.8v-19.8l-0.8-4.5H342.3z"/>
	<path class="st4" d="M377.1,223.1v1v1.1v1v1c0,1.1,0,2,0,2.7c0,0.7-0.1,1.4-0.2,2.3c-0.1,0.8-0.2,1.5-0.5,2c-0.2,0.5-0.6,1-1.1,1.5
		c-0.4,0.5-1,0.9-1.6,1.2c-0.6,0.3-1.3,0.5-2.3,0.7c-0.9,0.1-2,0.2-3.2,0.2s-2.3-0.1-3.3-0.2c-0.9-0.2-1.7-0.3-2.4-0.6
		c-0.6-0.3-1.1-0.7-1.6-1.2c-0.4-0.5-0.7-1-1-1.5c-0.2-0.5-0.4-1.2-0.6-2c-0.1-0.9-0.2-1.6-0.2-2.3c0-0.7,0-1.6,0-2.7v-1v-1.1v-1v-1
		c0-1.2,0-2,0-2.7c0-0.7,0.1-1.5,0.2-2.3c0.1-0.9,0.3-1.5,0.5-2c0.3-0.5,0.6-1,1-1.5c0.5-0.5,1-0.9,1.6-1.2c0.7-0.3,1.4-0.4,2.4-0.6
		c1-0.2,2-0.3,3.2-0.3c1.3,0,2.3,0,3.2,0.2c1,0.2,1.7,0.4,2.4,0.7c0.7,0.2,1.2,0.6,1.6,1.1c0.5,0.5,0.8,1,1,1.5
		c0.3,0.5,0.5,1.1,0.6,2c0.1,0.8,0.2,1.6,0.2,2.3C377.1,221,377.1,221.9,377.1,223.1 M360.7,223.2v0.9v1v1v1v2.6
		c0,0.6,0.1,1.3,0.2,2.1c0.1,0.8,0.2,1.3,0.4,1.7c0.2,0.4,0.5,0.8,0.8,1.3c0.4,0.4,0.8,0.7,1.3,1c0.6,0.2,1.2,0.4,1.9,0.5
		c0.8,0.1,1.6,0.2,2.6,0.2c1.1,0,1.9-0.1,2.7-0.2c0.8-0.1,1.4-0.3,1.9-0.5c0.5-0.2,1-0.5,1.3-1c0.4-0.5,0.6-0.9,0.8-1.3
		c0.2-0.4,0.3-1,0.4-1.7c0.1-0.8,0.2-1.5,0.2-2.1c0-0.7,0-1.5,0-2.6v-1v-1v-1v-1c0-1.1,0-1.9,0-2.6c0-0.7-0.1-1.3-0.2-2.1
		c-0.1-0.8-0.2-1.4-0.4-1.8c-0.2-0.4-0.4-0.8-0.8-1.3c-0.3-0.5-0.8-0.8-1.3-1c-0.5-0.2-1.1-0.4-1.9-0.5c-0.7-0.1-1.5-0.2-2.6-0.2
		c-1,0-1.9,0-2.7,0.2c-0.7,0.1-1.3,0.3-1.9,0.5c-0.5,0.2-0.9,0.4-1.3,0.9c-0.3,0.4-0.6,0.9-0.8,1.3c-0.2,0.4-0.4,1-0.5,1.7
		c-0.1,0.8-0.1,1.4-0.1,2.1C360.7,221.2,360.7,222,360.7,223.2"/>
	<polygon class="st4" points="387.7,246.9 386.2,246.9 389.3,237.2 388.3,237.2 380.3,213 382.1,213 389.6,236 397,213 398.8,213 	
		"/>
	<path class="st4" d="M418.5,234.5l0.8,1c-1.1,0.9-2.2,1.4-3.3,1.7c-1.1,0.3-2.7,0.5-4.8,0.5c-1.2,0-2.3-0.1-3.2-0.2
		c-0.9-0.2-1.7-0.3-2.4-0.6c-0.6-0.3-1.1-0.7-1.6-1.2c-0.4-0.5-0.7-1-1-1.5c-0.2-0.5-0.4-1.2-0.6-2c-0.1-0.9-0.2-1.6-0.2-2.3
		c0-0.7,0-1.6,0-2.7v-1v-1.1v-1v-1c0-1.2,0-2,0-2.7c0-0.7,0.1-1.5,0.2-2.3c0.1-0.9,0.3-1.5,0.5-2c0.3-0.5,0.6-1,1-1.5
		c0.5-0.5,1-0.9,1.6-1.2c0.7-0.3,1.4-0.4,2.4-0.6c1-0.2,2-0.3,3.2-0.3c1.4,0,2.5,0,3.4,0.2c1,0.2,1.8,0.5,2.4,0.9
		c0.7,0.4,1.2,0.8,1.5,1.3c0.4,0.4,0.7,1,0.9,1.8c0.2,0.8,0.3,1.5,0.4,2.2c0.1,0.7,0.1,1.7,0.1,2.8c0,0.3,0,0.9,0,1.7
		c0,0.8,0,1.4,0,1.7v1.3h-16v2.4c0,0.5,0,1.1,0.1,2c0.1,0.8,0.2,1.4,0.3,1.8c0.1,0.4,0.3,0.8,0.5,1.4c0.2,0.5,0.5,0.9,0.9,1.1
		c0.4,0.2,0.8,0.4,1.3,0.7c0.5,0.2,1.1,0.4,1.8,0.5c0.7,0.1,1.5,0.1,2.4,0.1c2,0,3.4-0.1,4.4-0.3
		C416.5,235.8,417.5,235.3,418.5,234.5 M418.2,225.2v-0.4v-1.5v-1.8c0-0.6,0-1.2,0-1.7c0-0.5,0-1-0.1-1.4c0-0.5-0.1-0.8-0.2-1.2
		c-0.1-0.4-0.2-0.8-0.4-1.1c-0.2-0.3-0.4-0.6-0.7-0.8c-0.2-0.3-0.5-0.4-0.9-0.6c-0.3-0.2-0.7-0.3-1.2-0.4c-0.4-0.1-1-0.2-1.5-0.3
		c-0.6-0.1-1.2-0.1-1.9-0.1c-1,0-1.8,0-2.6,0.2c-0.8,0.1-1.4,0.2-1.9,0.5c-0.5,0.2-0.9,0.5-1.3,1c-0.3,0.4-0.6,0.8-0.8,1.3
		c-0.2,0.4-0.3,1-0.4,1.8c-0.1,0.8-0.1,1.4-0.1,2.1c0,0.6,0,1.5,0,2.6v0.7v0.9v0.4H418.2z"/>
	<path class="st4" d="M440.9,229.6l1.6,0.1c0,1.4-0.1,2.5-0.3,3.4c-0.2,0.9-0.6,1.7-1.2,2.5c-0.6,0.7-1.4,1.3-2.6,1.6
		c-1.2,0.3-2.7,0.5-4.5,0.5c-1.2,0-2.3-0.1-3.2-0.2c-0.9-0.2-1.7-0.3-2.4-0.6c-0.6-0.3-1.1-0.7-1.6-1.2c-0.4-0.5-0.7-1-1-1.5
		c-0.2-0.5-0.4-1.2-0.6-2c-0.1-0.9-0.2-1.6-0.2-2.3c0-0.7,0-1.6,0-2.8v-1v-1.1v-1v-1c0-1.2,0-2,0-2.7c0-0.7,0.1-1.5,0.2-2.3
		c0.1-0.9,0.3-1.5,0.5-2c0.3-0.5,0.6-1,1-1.5c0.5-0.5,1-0.9,1.6-1.2c0.7-0.3,1.4-0.4,2.4-0.6c1-0.2,2-0.3,3.2-0.3
		c1.8,0,3.3,0.1,4.5,0.5c1.2,0.3,2,0.8,2.6,1.6c0.6,0.7,1,1.5,1.2,2.4c0.2,0.9,0.3,2,0.3,3.5l-1.6,0.1c0-1.3,0-2.3-0.2-3.1
		c-0.1-0.8-0.4-1.5-0.9-2.1c-0.5-0.6-1.1-1-2.1-1.3c-0.9-0.3-2.1-0.4-3.7-0.4c-1,0-1.8,0-2.6,0.2c-0.7,0.1-1.3,0.3-1.9,0.5
		c-0.5,0.2-0.9,0.4-1.3,0.9c-0.3,0.4-0.6,0.9-0.8,1.3c-0.2,0.4-0.4,1-0.5,1.7c-0.1,0.8-0.1,1.4-0.1,2.1c0,0.6,0,1.5,0,2.6v0.9v1v1v1
		v2.6c0,0.6,0.1,1.3,0.2,2.1c0.1,0.8,0.2,1.4,0.4,1.8c0.2,0.4,0.5,0.8,0.8,1.3c0.4,0.4,0.8,0.8,1.3,1c0.6,0.2,1.2,0.3,1.9,0.5
		c0.8,0.1,1.6,0.2,2.6,0.2c1.5,0,2.7-0.1,3.6-0.3c1-0.3,1.6-0.7,2.1-1.3c0.5-0.6,0.8-1.3,0.9-2C440.8,231.9,440.9,230.9,440.9,229.6
		"/>
	<path class="st4" d="M451,213h7.6v1.3H451v13.2c0,1.4,0,2.5,0,3.3c0.1,0.8,0.2,1.6,0.4,2.4c0.2,0.8,0.5,1.5,0.9,1.8
		c0.4,0.4,1,0.7,1.7,1c0.8,0.2,1.7,0.4,2.8,0.4c0.8,0,1.4,0,1.8-0.1l0.1,1.2c-0.6,0.1-1.3,0.2-2.2,0.2c-1,0-1.8,0-2.6-0.2
		c-0.8-0.2-1.4-0.4-1.9-0.7c-0.5-0.3-0.9-0.6-1.3-1.2c-0.3-0.6-0.6-1.1-0.8-1.6c-0.2-0.5-0.3-1.2-0.4-2c-0.1-0.9-0.1-1.6-0.1-2.3
		c0-0.7,0-1.7,0-2.8v-0.7v-0.8v-11.1h-3.5V213h3.5v-6.3h1.7V213z"/>
	<path class="st4" d="M481,223.1v1v1.1v1v1c0,1.1,0,2,0,2.7c0,0.7-0.1,1.4-0.2,2.3c-0.1,0.8-0.2,1.5-0.5,2c-0.2,0.5-0.6,1-1.1,1.5
		c-0.4,0.5-1,0.9-1.6,1.2c-0.6,0.3-1.3,0.5-2.3,0.7c-0.9,0.1-2,0.2-3.2,0.2s-2.3-0.1-3.3-0.2c-0.9-0.2-1.7-0.3-2.4-0.6
		c-0.6-0.3-1.1-0.7-1.6-1.2c-0.4-0.5-0.7-1-1-1.5c-0.2-0.5-0.4-1.2-0.6-2c-0.1-0.9-0.2-1.6-0.2-2.3c0-0.7,0-1.6,0-2.7v-1v-1.1v-1v-1
		c0-1.2,0-2,0-2.7c0-0.7,0.1-1.5,0.2-2.3c0.1-0.9,0.3-1.5,0.5-2c0.3-0.5,0.6-1,1-1.5c0.5-0.5,1-0.9,1.6-1.2c0.7-0.3,1.4-0.4,2.4-0.6
		c1-0.2,2-0.3,3.2-0.3c1.3,0,2.3,0,3.2,0.2c1,0.2,1.7,0.4,2.4,0.7c0.7,0.2,1.2,0.6,1.6,1.1c0.5,0.5,0.8,1,1,1.5
		c0.3,0.5,0.5,1.1,0.6,2c0.1,0.8,0.2,1.6,0.2,2.3C481,221,481,221.9,481,223.1 M464.6,223.2v0.9v1v1v1v2.6c0,0.6,0.1,1.3,0.2,2.1
		c0.1,0.8,0.2,1.3,0.4,1.7c0.2,0.4,0.5,0.8,0.8,1.3c0.4,0.4,0.8,0.7,1.3,1c0.6,0.2,1.2,0.4,1.9,0.5c0.8,0.1,1.6,0.2,2.6,0.2
		c1.1,0,1.9-0.1,2.7-0.2c0.8-0.1,1.4-0.3,1.9-0.5c0.5-0.2,1-0.5,1.3-1c0.4-0.5,0.6-0.9,0.8-1.3c0.2-0.4,0.3-1,0.4-1.7
		c0.1-0.8,0.2-1.5,0.2-2.1c0-0.7,0-1.5,0-2.6v-1v-1v-1v-1c0-1.1,0-1.9,0-2.6c0-0.7-0.1-1.3-0.2-2.1c-0.1-0.8-0.2-1.4-0.4-1.8
		c-0.2-0.4-0.4-0.8-0.8-1.3c-0.3-0.5-0.8-0.8-1.3-1c-0.5-0.2-1.1-0.4-1.9-0.5c-0.7-0.1-1.5-0.2-2.6-0.2c-1,0-1.9,0-2.7,0.2
		c-0.7,0.1-1.3,0.3-1.9,0.5c-0.5,0.2-0.9,0.4-1.3,0.9c-0.3,0.4-0.6,0.9-0.8,1.3c-0.2,0.4-0.4,1-0.5,1.7c-0.1,0.8-0.1,1.4-0.1,2.1
		C464.6,221.2,464.6,222,464.6,223.2"/>
	<rect x="485.1" y="233.1" class="st4" width="1.9" height="4.1"/>
	<polygon class="st1" points="605.4,26.7 605.4,43 603.8,43 603.8,29.9 597.4,41 596.5,41 590.1,30 590.1,43 588.5,43 588.5,26.7 
		589.9,26.7 597,38.8 604,26.7 	"/>
	<path class="st1" d="M625.7,38.7h-9.1l-2,4.4h-1.8l7.5-16.4h1.7l7.5,16.4h-1.8L625.7,38.7z M625.1,37.3l-3.9-8.8l-3.9,8.8H625.1z
		 M621.3,25.3h-1.6l3.2-2.9h2.2L621.3,25.3z"/>
	<path class="st1" d="M635.3,41l0.7-1.3c1.2,1.1,3.2,2,5.4,2c3.1,0,4.4-1.3,4.4-2.9c0-4.5-10.1-1.7-10.1-7.8c0-2.4,1.9-4.5,6-4.5
		c1.8,0,3.8,0.5,5.1,1.4l-0.6,1.4c-1.4-0.9-3-1.4-4.5-1.4c-3,0-4.3,1.3-4.3,3c0,4.5,10.1,1.8,10.1,7.7c0,2.4-1.9,4.5-6.1,4.5
		C638.9,43.2,636.5,42.3,635.3,41"/>
	<path class="st1" d="M666.7,26.7h6.7c5.2,0,8.8,3.4,8.8,8.2c0,4.8-3.5,8.2-8.8,8.2h-6.7V26.7z M673.3,41.5c4.3,0,7.1-2.8,7.1-6.7
		c0-3.9-2.8-6.7-7.1-6.7h-4.8v13.4H673.3z"/>
	<polygon class="st1" points="702.2,41.5 702.2,43 690.7,43 690.7,26.7 701.9,26.7 701.9,28.2 692.4,28.2 692.4,34 700.9,34 
		700.9,35.5 692.4,35.5 692.4,41.5 	"/>
</g>
</svg>
