<svg xmlns:xlink="http://www.w3.org/1999/xlink" xmlns="http://www.w3.org/2000/svg" version="1.1" id="Capa_1" x="0px" y="0px" viewBox="0 0 130 130" style="enable-background: new 0 0 130 130">
<style type="text/css">.st0{fill:#FFFFFF;}
	.st1{fill:#A5B549;}
	.st2{fill:#213760;}
	.st3{fill:#3D9CD7;}
	.st4{fill:#92B866;}</style>
<g>
	<g>
		<g>
			<path class="st0" d="M75.4,22c-2.1,1.5-5.4,6.2-4.3,6.5c-1.1-0.4-2.5-0.7-3.3,0.2c-0.4,0.4-0.5,1-0.6,1.6c-0.5,4-0.6,6.6-5.1,7.7     c-8.9,2.1-18.5-1.8-23.1-9.5c-14,8.9-23.3,24.6-23.3,42.4c0,27.8,22.5,50.3,50.3,50.3c27.8,0,50.3-22.5,50.3-50.3     c0-16.4-8.2-32-21.6-41.3c-3.6-2.5-7.5-4.5-11.6-6c-2-0.7-4.4-2.1-6.6-2C76.1,21.6,75.8,21.8,75.4,22z" />
		</g>
		<g>
			<g>
				<g>
					<path class="st1" d="M75.8,21c-0.2,0.5-0.5,1-0.8,1.5c19.7,4.1,35.7,20,38.9,41c4.1,27-14.5,52.4-41.5,56.5       c-27,4.1-52.4-14.5-56.5-41.5c-3-19.7,6.1-38.6,21.7-48.9c-0.3-0.5-0.6-1-0.8-1.4C20.7,38.9,11.2,58.4,14.4,78.9       c4.3,27.9,30.5,47.1,58.4,42.9c27.9-4.3,47.1-30.5,42.9-58.4C112.3,41.8,96,25.4,75.8,21z" />
				</g>
				<g>
					<g>
						<g>
							<path class="st2" d="M77.2,13.5c0.1,1.4,0,2.9-0.2,4.2c21.3,4.8,38.7,22.2,42.2,45.1c4.6,29.8-16,57.8-45.8,62.4         c-29.8,4.6-57.8-16-62.4-45.8c-3.4-22,6.9-43,24.5-54.4c-0.5-1.3-1-2.7-1.5-4C14.5,33.1,3.1,56,6.8,80         c4.9,32.1,35.1,54.2,67.2,49.3c32.1-4.9,54.2-35.1,49.3-67.2C119.4,37.3,100.4,18.4,77.2,13.5z" />
						</g>
					</g>
				</g>
				<g>
					<g>
						<g>
							<polygon class="st3" points="66.6,81 65.6,81.2 65.7,82.1 66.8,81.9 66.8,82.2 65.4,82.4 65,79.9 66.4,79.7 66.4,80          65.4,80.1 65.5,80.9 66.5,80.8 66.6,81" />
						</g>
					</g>
					<g>
						<g>
							<path class="st3" d="M67.1,80.3l0.3,0.3c0.1,0.1,0.2,0.2,0.2,0.3l0,0c0-0.1,0.1-0.2,0.1-0.3l0.2-0.4l0.4-0.1l-0.5,1l0.8,0.8         L68.3,82L68,81.6c-0.1-0.1-0.2-0.2-0.2-0.3l0,0c0,0.1-0.1,0.2-0.1,0.3l-0.2,0.4L67,82.2l0.5-1l-0.7-0.8L67.1,80.3L67.1,80.3z" />
						</g>
					</g>
					<g>
						<g>
							<path class="st3" d="M70.2,81.6c-0.1,0.1-0.3,0.1-0.5,0.2c-0.5,0.1-1-0.2-1-0.8c-0.1-0.6,0.2-1,0.8-1.1c0.2,0,0.4,0,0.5,0         l0,0.3c-0.1,0-0.2-0.1-0.4,0c-0.4,0.1-0.6,0.4-0.5,0.8c0.1,0.4,0.4,0.6,0.7,0.6c0.2,0,0.3-0.1,0.4-0.1L70.2,81.6L70.2,81.6z" />
						</g>
					</g>
					<g>
						<g>
							<path class="st3" d="M71.5,80.4c0-0.2-0.2-0.5-0.5-0.5c-0.3,0.1-0.4,0.4-0.4,0.6L71.5,80.4L71.5,80.4z M70.6,80.8         c0.1,0.4,0.4,0.6,0.7,0.5c0.2,0,0.4-0.1,0.5-0.2l0.1,0.2c-0.1,0.1-0.3,0.2-0.6,0.2c-0.6,0.1-0.9-0.2-1-0.8         c-0.1-0.5,0.2-1,0.7-1.1c0.6-0.1,0.8,0.4,0.9,0.7c0,0.1,0,0.1,0,0.2L70.6,80.8L70.6,80.8z" />
						</g>
					</g>
					<g>
						<g>
							<polygon class="st3" points="72,78.7 72.4,78.6 72.8,81.3 72.4,81.3 72,78.7" />
						</g>
					</g>
					<g>
						<g>
							<polygon class="st3" points="72.9,78.6 73.2,78.5 73.6,81.2 73.3,81.2 72.9,78.6" />
						</g>
					</g>
					<g>
						<g>
							<path class="st3" d="M75.2,79.8c0-0.2-0.2-0.5-0.5-0.5c-0.3,0.1-0.4,0.4-0.4,0.6L75.2,79.8L75.2,79.8z M74.2,80.2         c0.1,0.4,0.4,0.6,0.7,0.5c0.2,0,0.4-0.1,0.5-0.2l0.1,0.2C75.4,80.9,75.2,81,75,81c-0.6,0.1-0.9-0.2-1-0.8         c-0.1-0.5,0.2-1,0.7-1.1c0.6-0.1,0.8,0.4,0.9,0.7c0,0.1,0,0.1,0,0.2L74.2,80.2L74.2,80.2z" />
						</g>
					</g>
					<g>
						<g>
							<path class="st3" d="M75.9,79.5c0-0.2-0.1-0.3-0.1-0.5l0.3,0l0.1,0.3l0,0c0.1-0.2,0.2-0.4,0.5-0.4c0.2,0,0.7,0.1,0.8,0.7         l0.2,1.1l-0.3,0.1l-0.2-1c0-0.3-0.2-0.5-0.5-0.5c-0.2,0-0.4,0.2-0.4,0.4c0,0,0,0.1,0,0.2l0.2,1.1l-0.3,0.1L75.9,79.5         L75.9,79.5z" />
						</g>
					</g>
					<g>
						<g>
							<path class="st3" d="M79.4,80.2c-0.1,0.1-0.3,0.1-0.5,0.2c-0.5,0.1-1-0.2-1-0.8c-0.1-0.6,0.2-1,0.8-1.1c0.2,0,0.4,0,0.5,0         l0,0.3c-0.1,0-0.2-0.1-0.4,0c-0.4,0.1-0.6,0.4-0.5,0.8c0.1,0.4,0.4,0.6,0.7,0.6c0.2,0,0.3-0.1,0.4-0.1L79.4,80.2L79.4,80.2z" />
						</g>
					</g>
					<g>
						<g>
							<path class="st3" d="M80.7,79c0-0.2-0.2-0.5-0.5-0.5c-0.3,0.1-0.4,0.4-0.4,0.6L80.7,79L80.7,79z M79.8,79.3         c0.1,0.4,0.4,0.6,0.7,0.5c0.2,0,0.4-0.1,0.5-0.2l0.1,0.2c-0.1,0.1-0.3,0.2-0.6,0.2c-0.6,0.1-0.9-0.2-1-0.8         c-0.1-0.5,0.2-1,0.7-1.1c0.6-0.1,0.8,0.4,0.9,0.7c0,0.1,0,0.1,0,0.2L79.8,79.3L79.8,79.3z" />
						</g>
					</g>
					<g>
						<g>
							<polygon class="st3" points="82.4,77.2 82.8,79.8 82.4,79.8 82,77.3 82.4,77.2" />
						</g>
					</g>
					<g>
						<g>
							<path class="st3" d="M83.2,78.4c0-0.2-0.1-0.3-0.1-0.5l0.3,0l0.1,0.3l0,0c0.1-0.2,0.2-0.4,0.5-0.4c0.3,0,0.7,0.1,0.8,0.7         l0.2,1.1l-0.3,0.1l-0.2-1c0-0.3-0.2-0.5-0.5-0.5c-0.2,0-0.4,0.2-0.4,0.4c0,0,0,0.1,0,0.2l0.2,1.1l-0.3,0.1L83.2,78.4         L83.2,78.4z" />
						</g>
					</g>
					<g>
						<g>
							<path class="st3" d="M86.5,78.9c0.1,0,0.2,0,0.3,0c0.7-0.1,1-0.6,0.9-1.2c-0.1-0.6-0.5-0.9-1.2-0.8c-0.2,0-0.3,0.1-0.4,0.1         L86.5,78.9L86.5,78.9z M85.8,76.8c0.2-0.1,0.4-0.1,0.7-0.2c0.5-0.1,0.8,0,1.1,0.2c0.3,0.2,0.4,0.4,0.5,0.8         c0.1,0.4,0,0.8-0.2,1c-0.2,0.3-0.6,0.5-1.1,0.5c-0.2,0-0.4,0.1-0.6,0.1L85.8,76.8L85.8,76.8z" />
						</g>
					</g>
					<g>
						<g>
							<path class="st3" d="M89.7,77.6c0-0.2-0.2-0.5-0.5-0.5c-0.3,0.1-0.4,0.4-0.4,0.6L89.7,77.6L89.7,77.6z M88.8,78         c0.1,0.4,0.4,0.6,0.7,0.5c0.2,0,0.4-0.1,0.5-0.2l0.1,0.2c-0.1,0.1-0.3,0.2-0.6,0.2c-0.6,0.1-0.9-0.2-1-0.8         c-0.1-0.5,0.2-1,0.7-1.1c0.6-0.1,0.8,0.4,0.9,0.7c0,0.1,0,0.1,0,0.2L88.8,78L88.8,78z" />
						</g>
					</g>
					<g>
						<g>
							<path class="st3" d="M90.5,78.2c0.1,0,0.3,0.1,0.5,0.1c0.2,0,0.3-0.2,0.3-0.3c0-0.2-0.1-0.2-0.4-0.3         c-0.3-0.1-0.5-0.2-0.6-0.4c0-0.3,0.2-0.6,0.5-0.6c0.2,0,0.3,0,0.5,0l0,0.3c-0.1,0-0.2-0.1-0.4-0.1c-0.2,0-0.3,0.2-0.3,0.3         c0,0.1,0.1,0.2,0.4,0.3c0.3,0.1,0.5,0.2,0.6,0.5c0,0.3-0.2,0.6-0.6,0.6c-0.2,0-0.4,0-0.5,0L90.5,78.2L90.5,78.2z" />
						</g>
					</g>
					<g>
						<g>
							<path class="st3" d="M92,78.3l-0.3-1.8l0.3-0.1l0.3,1.8L92,78.3L92,78.3z M92.1,76c0,0.1,0,0.2-0.2,0.2         c-0.1,0-0.2-0.1-0.2-0.2c0-0.1,0.1-0.2,0.2-0.2C91.9,75.8,92,75.9,92.1,76L92.1,76z" />
						</g>
					</g>
					<g>
						<g>
							<path class="st3" d="M94,76.9c0-0.1,0-0.1,0-0.1c-0.1-0.2-0.3-0.3-0.5-0.3c-0.3,0-0.5,0.3-0.4,0.8c0.1,0.4,0.3,0.6,0.6,0.6         c0.2,0,0.4-0.2,0.4-0.4c0-0.1,0-0.1,0-0.2L94,76.9L94,76.9z M94.4,77.7c0.1,0.4,0,0.7-0.1,0.9c-0.2,0.2-0.4,0.3-0.6,0.3         c-0.2,0-0.5,0-0.6-0.1l0-0.3c0.1,0.1,0.3,0.1,0.6,0.1c0.3-0.1,0.6-0.3,0.5-0.7l0-0.2l0,0c-0.1,0.2-0.2,0.3-0.5,0.4         c-0.4,0.1-0.8-0.3-0.9-0.8c-0.1-0.6,0.3-1,0.7-1.1c0.3,0,0.5,0.1,0.6,0.2l0,0l0-0.3l0.3,0c0,0.1,0,0.3,0.1,0.5L94.4,77.7         L94.4,77.7z" />
						</g>
					</g>
					<g>
						<g>
							<path class="st3" d="M94.8,76.6c0-0.2-0.1-0.3-0.1-0.5l0.3,0l0.1,0.3l0,0c0.1-0.2,0.2-0.4,0.5-0.4c0.2,0,0.7,0.1,0.8,0.7         l0.2,1.1l-0.3,0.1l-0.2-1c0-0.3-0.2-0.5-0.5-0.5c-0.2,0-0.4,0.2-0.4,0.4c0,0,0,0.1,0,0.2l0.2,1.1L95,77.9L94.8,76.6         L94.8,76.6z" />
						</g>
					</g>
					<g>
						<g>
							<polygon class="st3" points="65.6,83.4 66.9,83.2 67,83.5 66,83.6 66.1,84.5 67,84.3 67.1,84.6 66.1,84.7 66.3,85.9 66,85.9          65.6,83.4" />
						</g>
					</g>
					<g>
						<g>
							<path class="st3" d="M67.7,84.7c0.1,0.4,0.3,0.7,0.7,0.6c0.3,0,0.5-0.4,0.4-0.8c0-0.3-0.3-0.7-0.6-0.6         C67.8,84,67.7,84.4,67.7,84.7L67.7,84.7z M69.2,84.5c0.1,0.7-0.3,1-0.7,1.1c-0.5,0.1-0.9-0.2-1-0.8c-0.1-0.6,0.3-1,0.7-1.1         C68.7,83.6,69.1,83.9,69.2,84.5L69.2,84.5z" />
						</g>
					</g>
					<g>
						<g>
							<path class="st3" d="M69.5,84.1c0-0.2-0.1-0.4-0.1-0.6l0.3,0l0.1,0.4l0,0c0-0.3,0.2-0.4,0.4-0.5c0,0,0.1,0,0.1,0l0,0.3         c0,0-0.1,0-0.1,0c-0.2,0-0.4,0.2-0.4,0.5c0,0,0,0.1,0,0.2l0.1,1l-0.3,0.1L69.5,84.1L69.5,84.1z" />
						</g>
					</g>
					<g>
						<g>
							<path class="st3" d="M73.6,84.6c-0.1,0.1-0.4,0.2-0.8,0.3c-0.4,0.1-0.7,0-1-0.2c-0.2-0.2-0.4-0.5-0.5-0.9         c-0.1-0.7,0.3-1.4,1.2-1.5c0.3,0,0.5,0,0.6,0l0,0.3c-0.1,0-0.3-0.1-0.6,0c-0.6,0.1-1,0.5-0.9,1.2c0.1,0.6,0.5,1,1.1,0.9         c0.2,0,0.4-0.1,0.4-0.1l-0.1-0.7l-0.5,0.1l0-0.3l0.8-0.1L73.6,84.6L73.6,84.6z" />
						</g>
					</g>
					<g>
						<g>
							<path class="st3" d="M73.9,83.4c0-0.2-0.1-0.4-0.1-0.6l0.3,0l0.1,0.4l0,0c0-0.3,0.2-0.4,0.4-0.5c0,0,0.1,0,0.1,0l0,0.3         c0,0-0.1,0-0.1,0c-0.2,0-0.4,0.2-0.4,0.5c0,0,0,0.1,0,0.2l0.1,1l-0.3,0.1L73.9,83.4L73.9,83.4z" />
						</g>
					</g>
					<g>
						<g>
							<path class="st3" d="M76.3,83.2c0-0.2-0.2-0.5-0.5-0.5c-0.3,0.1-0.4,0.4-0.4,0.6L76.3,83.2L76.3,83.2z M75.4,83.6         c0.1,0.4,0.4,0.6,0.7,0.5c0.2,0,0.4-0.1,0.5-0.2l0.1,0.2c-0.1,0.1-0.3,0.2-0.6,0.2c-0.6,0.1-0.9-0.2-1-0.8         c-0.1-0.5,0.2-1,0.7-1.1c0.6-0.1,0.8,0.4,0.9,0.7c0,0.1,0,0.1,0,0.2L75.4,83.6L75.4,83.6z" />
						</g>
					</g>
					<g>
						<g>
							<path class="st3" d="M78,83.1c-0.4,0-0.8,0.2-0.7,0.5c0,0.2,0.2,0.3,0.4,0.3c0.2,0,0.4-0.2,0.4-0.4c0,0,0-0.1,0-0.1L78,83.1         L78,83.1z M78.4,83.6c0,0.2,0.1,0.3,0.1,0.4l-0.3,0l-0.1-0.2l0,0c-0.1,0.2-0.3,0.3-0.5,0.4c-0.4,0.1-0.6-0.2-0.6-0.4         c-0.1-0.4,0.3-0.7,1-0.8l0,0c0-0.1-0.1-0.4-0.5-0.4c-0.2,0-0.3,0.1-0.5,0.2l-0.1-0.2c0.1-0.1,0.3-0.2,0.6-0.2         c0.6-0.1,0.7,0.3,0.8,0.6L78.4,83.6L78.4,83.6z" />
						</g>
					</g>
					<g>
						<g>
							<path class="st3" d="M79,81.6l0.1,0.4l0.5-0.1l0,0.2l-0.5,0.1l0.1,1c0,0.2,0.1,0.3,0.3,0.3c0.1,0,0.1,0,0.2-0.1l0.1,0.2         c-0.1,0-0.2,0.1-0.3,0.1c-0.2,0-0.3,0-0.4-0.1c-0.1-0.1-0.2-0.2-0.2-0.5l-0.2-1l-0.3,0l0-0.2l0.3,0l-0.1-0.3L79,81.6L79,81.6         z" />
						</g>
					</g>
					<g>
						<g>
							<path class="st3" d="M81.1,82.5c0-0.2-0.2-0.5-0.5-0.5c-0.3,0.1-0.4,0.4-0.4,0.6L81.1,82.5L81.1,82.5z M80.2,82.9         c0.1,0.4,0.4,0.6,0.7,0.5c0.2,0,0.4-0.1,0.5-0.2l0.1,0.2c-0.1,0.1-0.3,0.2-0.6,0.2c-0.6,0.1-0.9-0.2-1-0.8         c-0.1-0.5,0.2-1,0.7-1.1c0.6-0.1,0.8,0.4,0.9,0.7c0,0.1,0,0.1,0,0.2L80.2,82.9L80.2,82.9z" />
						</g>
					</g>
					<g>
						<g>
							<path class="st3" d="M81.8,82.2c0-0.2-0.1-0.4-0.1-0.6l0.3,0l0.1,0.4l0,0c0-0.3,0.2-0.4,0.4-0.5c0,0,0.1,0,0.1,0l0,0.3         c0,0-0.1,0-0.1,0c-0.2,0-0.4,0.2-0.4,0.5c0,0,0,0.1,0,0.2l0.1,1L82,83.5L81.8,82.2L81.8,82.2z" />
						</g>
					</g>
					<g>
						<g>
							<polygon class="st3" points="85.2,81.8 84.2,81.9 84.3,82.8 85.4,82.7 85.4,82.9 84,83.1 83.6,80.6 85,80.4 85,80.7 84,80.9          84.1,81.6 85.1,81.5 85.2,81.8" />
						</g>
					</g>
					<g>
						<g>
							<path class="st3" d="M87.8,80.2c-0.1,0-0.2-0.1-0.4,0C87,80.2,87,80.5,87,80.8l0,0.1l1-0.2l0.3,1.8L88,82.5L87.8,81l-0.7,0.1         l0.2,1.6l-0.3,0l-0.2-1.6L86,81.3l0.2,1.6l-0.3,0l-0.2-1.6l-0.2,0l0-0.2l0.2,0l0-0.1c0-0.2,0-0.5,0.1-0.6         c0.1-0.1,0.2-0.2,0.4-0.2c0.1,0,0.3,0,0.3,0l-0.1,0.3c-0.1,0-0.2,0-0.2,0c-0.1,0-0.2,0.1-0.2,0.1c-0.1,0.1-0.1,0.3-0.1,0.4         l0,0.1l0.8-0.1l0-0.1c-0.1-0.5,0.2-0.8,0.7-0.9c0.2,0,0.4,0,0.5,0L87.8,80.2L87.8,80.2z" />
						</g>
					</g>
					<g>
						<g>
							<path class="st3" d="M90.2,82.1c-0.1,0.1-0.3,0.1-0.5,0.2c-0.5,0.1-1-0.2-1-0.8c-0.1-0.6,0.2-1,0.8-1.1c0.2,0,0.4,0,0.5,0         l0,0.3c-0.1,0-0.2-0.1-0.4,0c-0.4,0.1-0.6,0.4-0.5,0.8c0.1,0.4,0.4,0.6,0.7,0.6c0.2,0,0.3-0.1,0.4-0.1L90.2,82.1L90.2,82.1z" />
						</g>
					</g>
					<g>
						<g>
							<path class="st3" d="M90.6,82.1l-0.3-1.8l0.3-0.1l0.3,1.8L90.6,82.1L90.6,82.1z M90.6,79.8c0,0.1,0,0.2-0.2,0.2         c-0.1,0-0.2-0.1-0.2-0.2c0-0.1,0.1-0.2,0.2-0.2C90.5,79.6,90.6,79.7,90.6,79.8L90.6,79.8z" />
						</g>
					</g>
					<g>
						<g>
							<path class="st3" d="M92.4,80.8c0-0.2-0.2-0.5-0.5-0.5c-0.3,0.1-0.4,0.4-0.4,0.6L92.4,80.8L92.4,80.8z M91.5,81.1         c0.1,0.4,0.4,0.6,0.7,0.5c0.2,0,0.4-0.1,0.5-0.2l0.1,0.2c-0.1,0.1-0.3,0.2-0.6,0.2c-0.6,0.1-0.9-0.2-1-0.8         c-0.1-0.5,0.2-1,0.7-1.1c0.6-0.1,0.8,0.4,0.9,0.7c0,0.1,0,0.1,0,0.2L91.5,81.1L91.5,81.1z" />
						</g>
					</g>
					<g>
						<g>
							<path class="st3" d="M93.1,80.4c0-0.2-0.1-0.3-0.1-0.5l0.3,0l0.1,0.3l0,0c0.1-0.2,0.2-0.4,0.5-0.4c0.2,0,0.7,0.1,0.8,0.7         l0.2,1.1l-0.3,0.1l-0.2-1c0-0.3-0.2-0.5-0.5-0.5c-0.2,0-0.4,0.2-0.4,0.4c0,0,0,0.1,0,0.2l0.2,1.1l-0.3,0.1L93.1,80.4         L93.1,80.4z" />
						</g>
					</g>
					<g>
						<g>
							<path class="st3" d="M96.6,81.1c-0.1,0.1-0.3,0.1-0.5,0.2c-0.5,0.1-1-0.2-1-0.8c-0.1-0.6,0.2-1,0.8-1.1c0.2,0,0.4,0,0.5,0         l0,0.3c-0.1,0-0.2-0.1-0.4,0c-0.4,0.1-0.6,0.4-0.5,0.8c0.1,0.4,0.4,0.6,0.7,0.6c0.2,0,0.3-0.1,0.4-0.1L96.6,81.1L96.6,81.1z" />
						</g>
					</g>
					<g>
						<g>
							<path class="st3" d="M97,81.1l-0.3-1.8l0.3-0.1l0.3,1.8L97,81.1L97,81.1z M97,78.8c0,0.1,0,0.2-0.2,0.2         c-0.1,0-0.2-0.1-0.2-0.2c0-0.1,0.1-0.2,0.2-0.2C96.9,78.6,97,78.7,97,78.8L97,78.8z" />
						</g>
					</g>
					<g>
						<g>
							<path class="st3" d="M98.9,79.8c0-0.2-0.2-0.5-0.5-0.5c-0.3,0.1-0.4,0.4-0.4,0.6L98.9,79.8L98.9,79.8z M98,80.1         c0.1,0.4,0.4,0.6,0.7,0.5c0.2,0,0.4-0.1,0.5-0.2l0.1,0.2c-0.1,0.1-0.3,0.2-0.6,0.2c-0.6,0.1-0.9-0.2-1-0.8         c-0.1-0.5,0.2-1,0.7-1.1c0.6-0.1,0.8,0.4,0.9,0.7c0,0.1,0,0.1,0,0.2L98,80.1L98,80.1z" />
						</g>
					</g>
					<g>
						<g>
							<path class="st3" d="M99.7,80.4c0.1,0,0.3,0.1,0.5,0.1c0.2,0,0.3-0.2,0.3-0.3c0-0.2-0.1-0.2-0.4-0.3         c-0.3-0.1-0.5-0.2-0.6-0.4c0-0.3,0.2-0.6,0.5-0.6c0.2,0,0.3,0,0.5,0l0,0.2c-0.1,0-0.2-0.1-0.4-0.1c-0.2,0-0.3,0.2-0.3,0.3         c0,0.1,0.1,0.2,0.4,0.3c0.3,0.1,0.5,0.2,0.6,0.5c0,0.3-0.2,0.6-0.6,0.6c-0.2,0-0.4,0-0.5,0L99.7,80.4L99.7,80.4z" />
						</g>
					</g>
					<g>
						<g>
							<polygon class="st3" points="40.8,89.4 49.4,88 49.7,90.1 43.5,91.1 44,94.3 49.9,93.3 50.2,95.4 44.3,96.3 44.8,99.8          51.4,98.8 51.7,100.9 42.8,102.3 40.8,89.4" />
						</g>
					</g>
					<g>
						<g>
							<path class="st3" d="M66.3,94.2c0.2,1.4,1.5,2.4,3,2.1c1.6-0.2,2.4-1.5,2.2-3c-0.2-1.5-1.4-2.4-3-2.2         C67,91.4,66.1,92.6,66.3,94.2L66.3,94.2z M72.9,88.7l1.2,8c0.5,3.2-0.7,5.4-4.2,5.9c-1.6,0.2-3.2,0.1-4.6-0.8l1-2         c1,0.7,2,1,3.2,0.8c2.1-0.3,2.6-1.6,2.3-3.4l-0.1-0.6l0,0c-0.5,1-1.6,1.6-2.7,1.7c-2.6,0.4-4.7-1.3-5.1-3.8         c-0.4-2.6,0.9-4.9,3.6-5.3c1.2-0.2,2.4,0.1,3.2,1.1l0,0L70.8,89L72.9,88.7L72.9,88.7z" />
						</g>
					</g>
					<g>
						<g>
							<path class="st3" d="M81.1,91c-0.2-1.3-1.2-2-2.5-1.7c-1.3,0.2-2,1.1-1.9,2.4L81.1,91L81.1,91z M76.9,93.4         c0.3,1.3,1.5,1.9,2.7,1.7c1.1-0.2,1.7-0.8,2.2-1.5l1.8,0.9c-0.8,1.4-2.1,2.1-3.4,2.3c-2.6,0.4-5-1.1-5.5-3.9         c-0.4-2.8,1.4-4.9,4.1-5.3c2.4-0.4,4.4,1.1,4.8,4.1l0.1,0.6L76.9,93.4L76.9,93.4z" />
						</g>
					</g>
					<g>
						<g>
							<polygon class="st3" points="57.3,94.9 56.4,89.3 52,92.8 52.7,93.1 57.3,94.9" />
						</g>
					</g>
					<g>
						<g>
							<polygon class="st3" points="52.7,98.9 57.1,95.4 52.2,93.5 51.8,93.3 52.7,98.9" />
						</g>
					</g>
					<g>
						<g>
							<polygon class="st4" points="57.4,95.8 53,99.3 58.3,101.4 57.4,95.8" />
						</g>
					</g>
					<g>
						<g>
							<polygon class="st3" points="63.2,97.8 57.9,95.7 58.8,101.3 63.2,97.8" />
						</g>
					</g>
					<g>
						<g>
							<polygon class="st3" points="62.5,91.7 58.1,95.2 63.4,97.3 62.5,91.7" />
						</g>
					</g>
					<g>
						<g>
							<polygon class="st4" points="62.2,91.3 56.9,89.2 57.8,94.8 62.2,91.3" />
						</g>
					</g>
					<g>
						<g>
							<polygon class="st3" points="61.5,85.2 57.1,88.7 62.4,90.8 61.5,85.2" />
						</g>
					</g>
					<g>
						<g>
							<polygon class="st3" points="61.2,84.8 55.9,82.7 56.8,88.3 61.2,84.8" />
						</g>
					</g>
					<g>
						<g>
							<polygon class="st4" points="60.5,78.7 56.1,82.2 61.4,84.3 60.5,78.7" />
						</g>
					</g>
				</g>
				<g>
					<g>
						<g>
							<path class="st2" d="M36.7,68.9c0.2,1.3-0.2,2.1-1.3,2.6l2.4,2.5l-1.6,0.3L34,72l-1.7,0.3l0.4,2.6L31.4,75l-1.2-7.6l2.8-0.4         c1.2-0.2,2-0.1,2.6,0.2C36.2,67.5,36.6,68.1,36.7,68.9z M35.2,70.3c0.2-0.3,0.3-0.6,0.2-1.1c-0.1-0.5-0.3-0.8-0.6-1         C34.5,68,34,68,33.3,68.1l-1.6,0.3l0.4,2.7l1.6-0.2C34.5,70.7,34.9,70.5,35.2,70.3z" />
						</g>
						<g>
							<path class="st2" d="M44.2,70.6l-4.6,0.7c0.1,0.4,0.3,0.7,0.7,0.9c0.4,0.2,0.8,0.3,1.3,0.2c0.7-0.1,1.2-0.4,1.6-0.9l0.8,0.7         c-0.5,0.7-1.3,1.2-2.3,1.3c-0.8,0.1-1.5,0-2.2-0.5c-0.7-0.5-1.1-1.1-1.2-2.1s0-1.7,0.5-2.3c0.5-0.6,1.1-1,1.9-1.1         c0.8-0.1,1.5,0,2.1,0.4c0.6,0.4,1,1,1.1,1.8L44.2,70.6z M39.5,70.4l3.3-0.5c-0.1-0.5-0.3-0.8-0.6-1.1         c-0.3-0.2-0.7-0.3-1.2-0.2c-0.4,0.1-0.8,0.3-1.1,0.6C39.6,69.5,39.5,69.9,39.5,70.4z" />
						</g>
						<g>
							<path class="st2" d="M49.8,70.4c0.1,0.6,0,1-0.4,1.4c-0.3,0.4-0.8,0.6-1.5,0.7c-0.4,0.1-0.9,0.1-1.4,0         c-0.5-0.1-0.9-0.2-1.3-0.5l0.4-1c0.8,0.4,1.4,0.6,2.1,0.5c0.3,0,0.5-0.1,0.6-0.3c0.1-0.2,0.2-0.3,0.2-0.5         c0-0.3-0.5-0.5-1.3-0.6c-0.1,0-0.1,0-0.1,0c-1.3-0.1-1.9-0.6-2.1-1.4c-0.1-0.5,0.1-1,0.4-1.4c0.4-0.4,0.9-0.6,1.6-0.7         c0.7-0.1,1.3,0,2,0.3l-0.3,1c-0.5-0.2-1.1-0.3-1.6-0.2c-0.3,0-0.5,0.1-0.7,0.3c-0.2,0.1-0.2,0.3-0.2,0.5         c0,0.2,0.1,0.3,0.3,0.4c0.1,0,0.3,0.1,0.6,0.1c0.2,0,0.5,0,0.7,0.1c0.2,0,0.4,0.1,0.6,0.1c0.2,0,0.4,0.1,0.6,0.2         C49.5,69.5,49.7,69.9,49.8,70.4z" />
						</g>
						<g>
							<path class="st2" d="M53.7,65.6c0.8-0.1,1.5,0,2.1,0.5c0.6,0.5,1,1.1,1.2,2c0.1,0.9,0,1.7-0.5,2.3c-0.5,0.6-1.1,1-1.8,1.1         c-0.7,0.1-1.4-0.1-2.1-0.7l0.5,3l-1.2,0.2l-1.2-7.9l1.2-0.2l0.2,1C52.3,66.1,52.9,65.7,53.7,65.6z M52.2,68.9         c0.1,0.6,0.3,1,0.7,1.3c0.4,0.3,0.8,0.4,1.3,0.3c0.5-0.1,0.9-0.3,1.2-0.7c0.3-0.4,0.4-0.9,0.3-1.4c-0.1-0.6-0.3-1-0.7-1.3         c-0.4-0.3-0.9-0.4-1.3-0.4c-0.5,0.1-0.9,0.3-1.1,0.7C52.2,67.8,52.1,68.3,52.2,68.9z" />
						</g>
						<g>
							<path class="st2" d="M63.5,69.3c-0.5,0.7-1.2,1.1-2,1.2c-0.9,0.1-1.6,0-2.3-0.5c-0.7-0.5-1.1-1.2-1.2-2         c-0.1-0.8,0.1-1.6,0.5-2.3s1.2-1.1,2-1.2c0.9-0.1,1.6,0,2.3,0.5c0.7,0.5,1.1,1.2,1.2,2C64.2,67.9,64,68.6,63.5,69.3z          M59.9,69.1c0.4,0.3,0.9,0.4,1.4,0.3c0.5-0.1,0.9-0.3,1.2-0.7s0.4-0.9,0.3-1.4c-0.1-0.6-0.3-1-0.7-1.3         c-0.4-0.3-0.9-0.4-1.4-0.3c-0.5,0.1-0.9,0.3-1.2,0.7c-0.3,0.4-0.4,0.9-0.3,1.4C59.3,68.3,59.5,68.8,59.9,69.1z" />
						</g>
						<g>
							<path class="st2" d="M66.6,66.4l0.5,3.1l-1.2,0.2L65,63.9l1.2-0.2l0.2,1.1c0.1-0.4,0.4-0.7,0.7-1c0.3-0.3,0.7-0.4,1.1-0.5         c0.7-0.1,1.2,0,1.7,0.4c0.5,0.3,0.8,0.9,0.9,1.6l0.5,3.6L70,69.1l-0.5-3.2c-0.2-1.1-0.7-1.5-1.6-1.4c-0.4,0.1-0.8,0.3-1,0.6         C66.6,65.4,66.6,65.8,66.6,66.4z" />
						</g>
						<g>
							<path class="st2" d="M76.8,66.3c0.1,0.6,0,1-0.4,1.4c-0.3,0.4-0.8,0.6-1.5,0.7c-0.4,0.1-0.9,0.1-1.4,0         c-0.5-0.1-0.9-0.2-1.3-0.5l0.4-1c0.8,0.4,1.4,0.6,2.1,0.5c0.3,0,0.5-0.1,0.6-0.3c0.1-0.2,0.2-0.3,0.2-0.5         c0-0.3-0.5-0.5-1.3-0.6c-0.1,0-0.1,0-0.1,0c-1.3-0.1-1.9-0.6-2.1-1.4c-0.1-0.5,0.1-1,0.4-1.4c0.4-0.4,0.9-0.6,1.6-0.7         c0.7-0.1,1.3,0,2,0.3l-0.3,1c-0.5-0.2-1.1-0.3-1.6-0.2c-0.3,0-0.5,0.1-0.7,0.3c-0.2,0.1-0.2,0.3-0.2,0.5         c0,0.2,0.1,0.3,0.3,0.4c0.1,0,0.3,0.1,0.6,0.1c0.2,0,0.5,0,0.7,0.1c0.2,0,0.4,0.1,0.6,0.1c0.2,0,0.4,0.1,0.6,0.2         C76.5,65.3,76.7,65.7,76.8,66.3z" />
						</g>
						<g>
							<path class="st2" d="M83.2,67.1l-1.1,0.2l-0.1-0.8c-0.4,0.6-1,1-1.8,1.2c-0.6,0.1-1.1,0-1.6-0.3c-0.4-0.3-0.7-0.7-0.8-1.3         c-0.1-0.6,0.1-1,0.4-1.4c0.4-0.3,0.9-0.6,1.6-0.7l1.6-0.2l0-0.2c-0.1-0.8-0.6-1.1-1.5-1c-0.5,0.1-1.1,0.4-1.6,0.8l-0.7-0.7         c0.6-0.7,1.4-1.1,2.3-1.2c0.7-0.1,1.3,0,1.8,0.3c0.5,0.3,0.8,0.8,0.9,1.5L83.2,67.1z M81.6,65.1l-0.1-0.5l-1.4,0.2         c-0.9,0.1-1.3,0.5-1.2,1c0,0.3,0.2,0.5,0.4,0.6c0.2,0.1,0.6,0.1,0.9,0.1c0.4-0.1,0.7-0.2,1-0.5         C81.6,65.8,81.7,65.5,81.6,65.1z" />
						</g>
						<g>
							<path class="st2" d="M87.1,60.4c0.8-0.1,1.5,0,2.1,0.5c0.6,0.5,1,1.1,1.2,2c0.1,0.9,0,1.7-0.5,2.3c-0.5,0.6-1.1,1-1.8,1.1         c-0.7,0.1-1.4-0.1-2.1-0.7l0.1,0.9l-1.2,0.2l-1.2-8.1l1.2-0.2l0.5,3.3C85.7,61,86.3,60.5,87.1,60.4z M85.6,63.7         c0.1,0.6,0.3,1,0.7,1.3c0.4,0.3,0.8,0.4,1.3,0.3s0.9-0.3,1.2-0.7c0.3-0.4,0.4-0.9,0.3-1.4c-0.1-0.6-0.3-1-0.7-1.3         c-0.4-0.3-0.9-0.4-1.3-0.4c-0.5,0.1-0.9,0.3-1.1,0.7C85.6,62.7,85.5,63.2,85.6,63.7z" />
						</g>
						<g>
							<path class="st2" d="M93.4,65.5l-1.2,0.2L91,57.6l1.2-0.2L93.4,65.5z" />
						</g>
						<g>
							<path class="st2" d="M100.2,62l-4.6,0.7c0.1,0.4,0.3,0.7,0.7,0.9c0.4,0.2,0.8,0.3,1.3,0.2c0.7-0.1,1.2-0.4,1.6-0.9l0.8,0.7         c-0.5,0.7-1.3,1.2-2.3,1.3c-0.8,0.1-1.5,0-2.2-0.5c-0.7-0.5-1.1-1.1-1.2-2.1c-0.1-0.9,0-1.7,0.5-2.3c0.5-0.6,1.1-1,1.9-1.1         c0.8-0.1,1.5,0,2.1,0.4c0.6,0.4,1,1,1.1,1.8L100.2,62z M95.5,61.8l3.3-0.5c-0.1-0.5-0.3-0.8-0.6-1.1         c-0.3-0.2-0.7-0.3-1.2-0.2c-0.4,0.1-0.8,0.3-1.1,0.6C95.6,60.9,95.5,61.3,95.5,61.8z" />
						</g>
					</g>
				</g>
				<g>
					<g>
						<g>
							<path class="st2" d="M37.2,49.1c0.3,0.3,0.7,0.4,1.2,0.3c0.5-0.1,0.8-0.3,1.1-0.7c0.2-0.4,0.3-0.8,0.2-1.4L39.1,44l1-0.2         l0.5,3.4c0.1,0.9,0,1.6-0.4,2.1c-0.4,0.5-1,0.9-1.7,1c-0.8,0.1-1.4,0-2-0.4c-0.6-0.4-0.9-1-1-1.9L35,44.6l1-0.2l0.5,3.4         C36.6,48.4,36.9,48.8,37.2,49.1z" />
						</g>
						<g>
							<path class="st2" d="M43.1,47l0.4,2.5l-1,0.1l-0.7-4.6l1-0.1l0.1,0.8c0.1-0.3,0.3-0.6,0.5-0.8c0.2-0.2,0.5-0.3,0.9-0.4         c0.5-0.1,1,0,1.3,0.3c0.4,0.3,0.6,0.7,0.7,1.3l0.4,2.8l-1,0.1l-0.4-2.5c-0.1-0.8-0.5-1.2-1.3-1.1c-0.3,0.1-0.6,0.2-0.8,0.5         C43.1,46.3,43,46.6,43.1,47z" />
						</g>
						<g>
							<path class="st2" d="M52.2,43.4c0.6-0.1,1.2,0,1.7,0.4c0.5,0.4,0.8,0.9,0.9,1.6c0.1,0.7,0,1.3-0.4,1.8         c-0.4,0.5-0.8,0.8-1.4,0.9c-0.6,0.1-1.1-0.1-1.7-0.5l0.4,2.4l-1,0.1l-1-6.3l1-0.1l0.1,0.8C51.2,43.8,51.6,43.5,52.2,43.4z          M51.1,46c0.1,0.4,0.3,0.8,0.6,1c0.3,0.2,0.7,0.3,1,0.3c0.4-0.1,0.7-0.2,0.9-0.6c0.2-0.3,0.3-0.7,0.3-1.1         c-0.1-0.4-0.3-0.8-0.6-1c-0.3-0.2-0.7-0.3-1.1-0.3c-0.4,0.1-0.7,0.3-0.9,0.6C51.1,45.2,51,45.6,51.1,46z" />
						</g>
						<g>
							<path class="st2" d="M58.2,43.5c-0.5,0.1-0.8,0.3-1,0.6c-0.2,0.3-0.3,0.8-0.2,1.3l0.3,2l-1,0.1l-0.7-4.6l1-0.1l0.1,0.9         c0.1-0.3,0.3-0.6,0.5-0.8c0.2-0.2,0.5-0.4,0.8-0.4L58.2,43.5C58.2,43.5,58.2,43.5,58.2,43.5z" />
						</g>
						<g>
							<path class="st2" d="M63.4,45.8c-0.4,0.5-0.9,0.8-1.6,1s-1.3,0-1.8-0.4c-0.5-0.4-0.9-0.9-1-1.6c-0.1-0.7,0-1.3,0.4-1.8         c0.4-0.5,0.9-0.8,1.6-1c0.7-0.1,1.3,0,1.8,0.4c0.5,0.4,0.9,0.9,1,1.6C64,44.7,63.8,45.3,63.4,45.8z M60.6,45.7         c0.3,0.2,0.7,0.3,1.1,0.3c0.4-0.1,0.7-0.3,1-0.6c0.2-0.3,0.3-0.7,0.2-1.2c-0.1-0.4-0.3-0.8-0.6-1c-0.3-0.2-0.7-0.3-1.1-0.3         s-0.7,0.3-1,0.6c-0.2,0.3-0.3,0.7-0.2,1.2C60.1,45.1,60.3,45.4,60.6,45.7z" />
						</g>
						<g>
							<path class="st2" d="M66.1,47.9c-0.4,0.1-0.8,0-1.2-0.3l0.3-0.9c0.2,0.2,0.5,0.2,0.7,0.2s0.4-0.1,0.5-0.3         c0.1-0.2,0.2-0.4,0.1-0.5c0-0.1-0.9-1.6-2.6-4.5l1-0.2l1.9,3.2l0.9-3.6l1-0.2l-1.4,5.8c-0.1,0.3-0.2,0.6-0.5,0.8         C66.7,47.8,66.4,47.9,66.1,47.9z" />
						</g>
						<g>
							<path class="st2" d="M74.2,42.9l-3.6,0.6c0.1,0.3,0.3,0.6,0.6,0.7c0.3,0.2,0.7,0.2,1,0.2c0.6-0.1,1-0.3,1.2-0.7l0.6,0.5         c-0.4,0.6-1,0.9-1.8,1.1c-0.6,0.1-1.2,0-1.8-0.4c-0.5-0.4-0.8-0.9-0.9-1.6c-0.1-0.7,0-1.3,0.4-1.8c0.4-0.5,0.9-0.8,1.5-0.9         c0.6-0.1,1.2,0,1.7,0.3c0.5,0.3,0.8,0.8,0.9,1.5L74.2,42.9z M70.5,42.7l2.6-0.4c-0.1-0.4-0.2-0.7-0.5-0.8         c-0.3-0.2-0.6-0.2-0.9-0.2c-0.4,0.1-0.7,0.2-0.9,0.5C70.5,42,70.4,42.3,70.5,42.7z" />
						</g>
						<g>
							<path class="st2" d="M77.6,44.3c-0.6,0.1-1.2,0-1.8-0.4c-0.5-0.4-0.8-0.9-1-1.6c-0.1-0.7,0-1.3,0.5-1.8         c0.4-0.5,1-0.8,1.7-0.9c0.7-0.1,1.3,0,1.9,0.4l-0.5,0.8c-0.5-0.3-0.9-0.4-1.3-0.3c-0.4,0.1-0.7,0.3-1,0.6         c-0.3,0.3-0.4,0.7-0.3,1.1s0.3,0.8,0.6,1c0.3,0.2,0.7,0.3,1.2,0.3c0.4-0.1,0.8-0.3,1.1-0.8l0.7,0.5         C79,43.9,78.4,44.2,77.6,44.3z" />
						</g>
						<g>
							<path class="st2" d="M81.2,39.8l0.4,2.3c0,0.2,0.1,0.4,0.3,0.5s0.3,0.2,0.5,0.1c0.2,0,0.4-0.2,0.6-0.4l0.5,0.6         c-0.3,0.4-0.6,0.6-1.1,0.6s-0.8,0-1.1-0.3c-0.3-0.2-0.5-0.6-0.6-1.1L80.2,40L79.6,40l-0.1-0.8l0.6-0.1l-0.2-1.4l1-0.1         l0.2,1.4l1.2-0.2l0.1,0.8L81.2,39.8z" />
						</g>
						<g>
							<path class="st2" d="M87.9,42.1c-0.4,0.5-0.9,0.8-1.6,1c-0.7,0.1-1.3,0-1.8-0.4c-0.5-0.4-0.9-0.9-1-1.6         c-0.1-0.7,0-1.3,0.4-1.8c0.4-0.5,0.9-0.8,1.6-1s1.3,0,1.8,0.4c0.5,0.4,0.9,0.9,1,1.6C88.5,40.9,88.3,41.5,87.9,42.1z          M85.1,41.9c0.3,0.2,0.7,0.3,1.1,0.3s0.7-0.3,1-0.6c0.2-0.3,0.3-0.7,0.2-1.2c-0.1-0.4-0.3-0.8-0.6-1         c-0.3-0.2-0.7-0.3-1.1-0.3c-0.4,0.1-0.7,0.3-1,0.6c-0.2,0.3-0.3,0.7-0.2,1.2C84.6,41.3,84.8,41.7,85.1,41.9z" />
						</g>
					</g>
				</g>
				<g>
					<g>
						<g>
							<path class="st2" d="M30.3,62.5l-0.4,1.4l-1,0.2l1.6-6.1l1-0.2l3.4,5.4l-1,0.2L33.2,62L30.3,62.5z M32.6,61.2L31.2,59         l-0.7,2.5L32.6,61.2z" />
						</g>
						<g>
							<path class="st2" d="M36.2,60.5l0.4,2.4L35.6,63L35,58.6l0.9-0.1l0.1,0.8c0.1-0.3,0.3-0.5,0.5-0.7c0.2-0.2,0.5-0.3,0.8-0.4         c0.7-0.1,1.2,0.1,1.5,0.6c0.3-0.6,0.8-1,1.5-1.1c0.5-0.1,0.9,0,1.3,0.3c0.4,0.3,0.6,0.7,0.7,1.2l0.4,2.7L41.8,62l-0.4-2.4         c-0.1-0.8-0.5-1.2-1.2-1.1c-0.3,0-0.6,0.2-0.8,0.4c-0.2,0.2-0.3,0.5-0.2,0.9l0.4,2.4l-0.9,0.1l-0.4-2.4         c-0.1-0.4-0.2-0.7-0.4-0.9c-0.2-0.2-0.4-0.2-0.7-0.2s-0.6,0.2-0.8,0.4C36.2,59.7,36.1,60.1,36.2,60.5z" />
						</g>
						<g>
							<path class="st2" d="M45.6,56.9c0.6-0.1,1.1,0,1.6,0.4c0.5,0.3,0.8,0.8,0.9,1.5c0.1,0.7,0,1.3-0.4,1.7         c-0.3,0.5-0.8,0.8-1.3,0.9s-1.1-0.1-1.6-0.5l0.1,0.7L44,61.7L43,55.6l0.9-0.1l0.4,2.5C44.6,57.3,45,57,45.6,56.9z M44.5,59.4         c0.1,0.4,0.2,0.7,0.5,1c0.3,0.2,0.6,0.3,1,0.3c0.4-0.1,0.7-0.2,0.9-0.5c0.2-0.3,0.3-0.7,0.2-1.1c-0.1-0.4-0.2-0.7-0.6-1         c-0.3-0.2-0.6-0.3-1-0.3c-0.4,0.1-0.7,0.2-0.9,0.6C44.5,58.6,44.5,59,44.5,59.4z" />
						</g>
						<g>
							<path class="st2" d="M48.7,55.6c-0.1-0.1-0.2-0.2-0.2-0.4c0-0.2,0-0.3,0.1-0.4s0.2-0.2,0.4-0.2c0.2,0,0.3,0,0.4,0.1         s0.2,0.2,0.2,0.4c0,0.2,0,0.3-0.1,0.4s-0.2,0.2-0.4,0.2C49,55.7,48.9,55.7,48.7,55.6z M50.4,60.7l-0.9,0.1l-0.7-4.4l0.9-0.1         L50.4,60.7z" />
						</g>
						<g>
							<path class="st2" d="M55.5,58.1l-3.4,0.5c0.1,0.3,0.3,0.5,0.6,0.7c0.3,0.2,0.6,0.2,1,0.2c0.5-0.1,0.9-0.3,1.2-0.7l0.6,0.5         c-0.4,0.6-1,0.9-1.7,1c-0.6,0.1-1.2,0-1.7-0.4c-0.5-0.3-0.8-0.9-0.9-1.5c-0.1-0.7,0-1.3,0.4-1.7c0.4-0.5,0.9-0.8,1.5-0.8         c0.6-0.1,1.1,0,1.6,0.3c0.5,0.3,0.8,0.8,0.9,1.4L55.5,58.1z M52,57.9l2.5-0.4c-0.1-0.4-0.2-0.6-0.5-0.8         c-0.3-0.2-0.6-0.2-0.9-0.2s-0.6,0.2-0.9,0.4C52,57.2,51.9,57.5,52,57.9z" />
						</g>
						<g>
							<path class="st2" d="M57.4,57.2l0.4,2.4l-0.9,0.1l-0.7-4.4l0.9-0.1l0.1,0.8c0.1-0.3,0.3-0.5,0.5-0.7c0.2-0.2,0.5-0.3,0.8-0.4         c0.5-0.1,0.9,0,1.3,0.3s0.6,0.7,0.7,1.2l0.4,2.7l-0.9,0.1l-0.4-2.4c-0.1-0.8-0.5-1.2-1.2-1.1c-0.3,0-0.6,0.2-0.8,0.4         C57.4,56.5,57.3,56.8,57.4,57.2z" />
						</g>
						<g>
							<path class="st2" d="M62.6,55.1l0.3,2.2c0,0.2,0.1,0.4,0.2,0.5c0.1,0.1,0.3,0.1,0.5,0.1c0.2,0,0.4-0.2,0.5-0.4l0.5,0.6         c-0.3,0.3-0.6,0.5-1,0.6s-0.7,0-1.1-0.3c-0.3-0.2-0.5-0.6-0.6-1l-0.3-2.2l-0.6,0.1l-0.1-0.7l0.6-0.1l-0.2-1.4l0.9-0.1         l0.2,1.4l1.2-0.2l0.1,0.7L62.6,55.1z" />
						</g>
						<g>
							<path class="st2" d="M69,57.8L68.2,58l-0.1-0.6c-0.3,0.5-0.7,0.8-1.4,0.9c-0.5,0.1-0.9,0-1.2-0.2c-0.3-0.2-0.5-0.5-0.6-1         c-0.1-0.4,0-0.8,0.3-1c0.3-0.3,0.7-0.4,1.2-0.5l1.2-0.2l0-0.2c-0.1-0.6-0.5-0.8-1.1-0.7c-0.4,0.1-0.8,0.3-1.2,0.6l-0.5-0.5         c0.5-0.5,1-0.8,1.7-0.9c0.5-0.1,1,0,1.3,0.2s0.6,0.6,0.7,1.2L69,57.8z M67.9,56.4L67.8,56l-1,0.2c-0.7,0.1-1,0.4-0.9,0.8         c0,0.2,0.1,0.4,0.3,0.5c0.2,0.1,0.4,0.1,0.7,0.1s0.5-0.2,0.7-0.4S67.9,56.6,67.9,56.4z" />
						</g>
						<g>
							<path class="st2" d="M71.2,57.5l-0.9,0.1l-0.9-6.1l0.9-0.1L71.2,57.5z" />
						</g>
						<g>
							<path class="st2" d="M73.1,54.8l0.4,2.4l-0.9,0.1l-0.7-4.4l0.9-0.1l0.1,0.8c0.1-0.3,0.3-0.5,0.5-0.7c0.2-0.2,0.5-0.3,0.8-0.4         c0.7-0.1,1.2,0.1,1.5,0.6c0.3-0.6,0.8-1,1.5-1.1c0.5-0.1,0.9,0,1.3,0.3c0.4,0.3,0.6,0.7,0.7,1.2l0.4,2.7l-0.9,0.1L78.3,54         c-0.1-0.8-0.5-1.2-1.2-1.1c-0.3,0-0.6,0.2-0.8,0.4c-0.2,0.2-0.3,0.5-0.2,0.9l0.4,2.4l-0.9,0.1l-0.4-2.4         c-0.1-0.4-0.2-0.7-0.4-0.9c-0.2-0.2-0.4-0.2-0.7-0.2s-0.6,0.2-0.8,0.4C73.1,54.1,73.1,54.4,73.1,54.8z" />
						</g>
						<g>
							<path class="st2" d="M84.7,53.6l-3.4,0.5c0.1,0.3,0.3,0.5,0.6,0.7c0.3,0.2,0.6,0.2,1,0.2c0.5-0.1,0.9-0.3,1.2-0.7l0.6,0.5         c-0.4,0.6-1,0.9-1.7,1c-0.6,0.1-1.2,0-1.7-0.4c-0.5-0.3-0.8-0.9-0.9-1.5c-0.1-0.7,0-1.3,0.4-1.7c0.4-0.5,0.9-0.8,1.5-0.8         c0.6-0.1,1.1,0,1.6,0.3c0.5,0.3,0.8,0.8,0.9,1.4L84.7,53.6z M81.2,53.4l2.5-0.4c-0.1-0.4-0.2-0.6-0.5-0.8         c-0.3-0.2-0.6-0.2-0.9-0.2s-0.6,0.2-0.9,0.4C81.2,52.8,81.1,53.1,81.2,53.4z" />
						</g>
						<g>
							<path class="st2" d="M86.5,52.7l0.4,2.4L86,55.2l-0.7-4.4l0.9-0.1l0.1,0.8c0.1-0.3,0.3-0.5,0.5-0.7c0.2-0.2,0.5-0.3,0.8-0.4         c0.5-0.1,0.9,0,1.3,0.3c0.4,0.3,0.6,0.7,0.7,1.2l0.4,2.7l-0.9,0.1l-0.4-2.4c-0.1-0.8-0.5-1.2-1.2-1.1c-0.3,0-0.6,0.2-0.8,0.4         C86.6,52,86.5,52.3,86.5,52.7z" />
						</g>
						<g>
							<path class="st2" d="M91.8,50.6l0.3,2.2c0,0.2,0.1,0.4,0.2,0.5c0.1,0.1,0.3,0.1,0.5,0.1c0.2,0,0.4-0.2,0.5-0.4l0.5,0.6         c-0.3,0.3-0.6,0.5-1,0.6c-0.4,0.1-0.7,0-1.1-0.3c-0.3-0.2-0.5-0.6-0.6-1l-0.3-2.2l-0.6,0.1l-0.1-0.7l0.6-0.1l-0.2-1.4         l0.9-0.1l0.2,1.4l1.2-0.2l0.1,0.7L91.8,50.6z" />
						</g>
						<g>
							<path class="st2" d="M98.5,51.5L95,52c0.1,0.3,0.3,0.5,0.6,0.7s0.6,0.2,1,0.2c0.5-0.1,0.9-0.3,1.2-0.7l0.6,0.5         c-0.4,0.6-1,0.9-1.7,1c-0.6,0.1-1.2,0-1.7-0.4s-0.8-0.9-0.9-1.5c-0.1-0.7,0-1.3,0.4-1.7c0.4-0.5,0.9-0.8,1.5-0.8         c0.6-0.1,1.1,0,1.6,0.3c0.5,0.3,0.8,0.8,0.9,1.4L98.5,51.5z M94.9,51.3l2.5-0.4c-0.1-0.4-0.2-0.6-0.5-0.8         c-0.3-0.2-0.6-0.2-0.9-0.2c-0.3,0.1-0.6,0.2-0.9,0.4C95,50.7,94.9,51,94.9,51.3z" />
						</g>
					</g>
				</g>
				<g>
					<g>
						<g>
							<path class="st2" d="M96.7,45.6l-0.2,0l0-0.2l0.2,0L96.7,45.6z M95.7,45.7L95,45.8l0-0.2l0.8-0.1L95.7,45.7z M94.2,46         l-0.8,0.1l0-0.2l0.8-0.1L94.2,46z M92.7,46.2l-0.8,0.1l0-0.2l0.8-0.1L92.7,46.2z M91.2,46.4l-0.8,0.1l0-0.2l0.8-0.1         L91.2,46.4z M89.7,46.7l-0.8,0.1l0-0.2l0.8-0.1L89.7,46.7z M88.1,46.9L87.4,47l0-0.2l0.8-0.1L88.1,46.9z M86.6,47.1l-0.8,0.1         l0-0.2l0.8-0.1L86.6,47.1z M85.1,47.4l-0.8,0.1l0-0.2l0.8-0.1L85.1,47.4z M83.6,47.6l-0.8,0.1l0-0.2l0.8-0.1L83.6,47.6z          M82.1,47.8l-0.8,0.1l0-0.2l0.8-0.1L82.1,47.8z M80.5,48.1l-0.8,0.1l0-0.2l0.8-0.1L80.5,48.1z M79,48.3l-0.8,0.1l0-0.2         l0.8-0.1L79,48.3z M77.5,48.5l-0.8,0.1l0-0.2l0.8-0.1L77.5,48.5z M76,48.8l-0.8,0.1l0-0.2l0.8-0.1L76,48.8z M74.5,49         l-0.8,0.1l0-0.2l0.8-0.1L74.5,49z M72.9,49.2l-0.8,0.1l0-0.2l0.8-0.1L72.9,49.2z M71.4,49.5l-0.8,0.1l0-0.2l0.8-0.1         L71.4,49.5z M69.9,49.7l-0.8,0.1l0-0.2l0.8-0.1L69.9,49.7z M68.4,49.9L67.6,50l0-0.2l0.8-0.1L68.4,49.9z M66.9,50.2l-0.8,0.1         l0-0.2l0.8-0.1L66.9,50.2z M65.3,50.4l-0.8,0.1l0-0.2l0.8-0.1L65.3,50.4z M63.8,50.6l-0.8,0.1l0-0.2l0.8-0.1L63.8,50.6z          M62.3,50.9L61.5,51l0-0.2l0.8-0.1L62.3,50.9z M60.8,51.1L60,51.2l0-0.2l0.8-0.1L60.8,51.1z M59.3,51.3l-0.8,0.1l0-0.2         l0.8-0.1L59.3,51.3z M57.7,51.6L57,51.7l0-0.2l0.8-0.1L57.7,51.6z M56.2,51.8l-0.8,0.1l0-0.2l0.8-0.1L56.2,51.8z M54.7,52         l-0.8,0.1l0-0.2l0.8-0.1L54.7,52z M53.2,52.3l-0.8,0.1l0-0.2l0.8-0.1L53.2,52.3z M51.7,52.5l-0.8,0.1l0-0.2l0.8-0.1         L51.7,52.5z M50.1,52.7l-0.8,0.1l0-0.2l0.8-0.1L50.1,52.7z M48.6,53l-0.8,0.1l0-0.2l0.8-0.1L48.6,53z M47.1,53.2l-0.8,0.1         l0-0.2l0.8-0.1L47.1,53.2z M45.6,53.4l-0.8,0.1l0-0.2l0.8-0.1L45.6,53.4z M44.1,53.7l-0.8,0.1l0-0.2l0.8-0.1L44.1,53.7z          M42.5,53.9L41.8,54l0-0.2l0.8-0.1L42.5,53.9z M41,54.1l-0.8,0.1l0-0.2l0.8-0.1L41,54.1z M39.5,54.4l-0.8,0.1l0-0.2l0.8-0.1         L39.5,54.4z M38,54.6l-0.8,0.1l0-0.2l0.8-0.1L38,54.6z M36.5,54.8l-0.8,0.1l0-0.2l0.8-0.1L36.5,54.8z M34.9,55.1l-0.8,0.1         l0-0.2l0.8-0.1L34.9,55.1z M33.4,55.3l-0.8,0.1l0-0.2l0.8-0.1L33.4,55.3z M31.9,55.5l-0.8,0.1l0-0.2l0.8-0.1L31.9,55.5z          M30.4,55.8l-0.8,0.1l0-0.2l0.8-0.1L30.4,55.8z" />
						</g>
					</g>
				</g>
				<g>
					<g>
						<g>
							<path class="st2" d="M100.2,68.7l-0.2,0l0-0.2l0.2,0L100.2,68.7z M99.3,68.9L98.5,69l0-0.2l0.8-0.1L99.3,68.9z M97.8,69.1         L97,69.2l0-0.2l0.8-0.1L97.8,69.1z M96.2,69.3l-0.8,0.1l0-0.2l0.8-0.1L96.2,69.3z M94.7,69.6L94,69.7l0-0.2l0.8-0.1         L94.7,69.6z M93.2,69.8l-0.8,0.1l0-0.2l0.8-0.1L93.2,69.8z M91.7,70l-0.8,0.1l0-0.2l0.8-0.1L91.7,70z M90.2,70.3l-0.8,0.1         l0-0.2l0.8-0.1L90.2,70.3z M88.6,70.5l-0.8,0.1l0-0.2l0.8-0.1L88.6,70.5z M87.1,70.7l-0.8,0.1l0-0.2l0.8-0.1L87.1,70.7z          M85.6,71l-0.8,0.1l0-0.2l0.8-0.1L85.6,71z M84.1,71.2l-0.8,0.1l0-0.2l0.8-0.1L84.1,71.2z M82.6,71.4l-0.8,0.1l0-0.2l0.8-0.1         L82.6,71.4z M81,71.7l-0.8,0.1l0-0.2l0.8-0.1L81,71.7z M79.5,71.9L78.8,72l0-0.2l0.8-0.1L79.5,71.9z M78,72.1l-0.8,0.1l0-0.2         l0.8-0.1L78,72.1z M76.5,72.4l-0.8,0.1l0-0.2l0.8-0.1L76.5,72.4z M75,72.6l-0.8,0.1l0-0.2l0.8-0.1L75,72.6z M73.5,72.8         l-0.8,0.1l0-0.2l0.8-0.1L73.5,72.8z M71.9,73.1l-0.8,0.1l0-0.2l0.8-0.1L71.9,73.1z M70.4,73.3l-0.8,0.1l0-0.2l0.8-0.1         L70.4,73.3z M68.9,73.5l-0.8,0.1l0-0.2l0.8-0.1L68.9,73.5z M67.4,73.8l-0.8,0.1l0-0.2l0.8-0.1L67.4,73.8z M65.9,74l-0.8,0.1         l0-0.2l0.8-0.1L65.9,74z M64.3,74.2l-0.8,0.1l0-0.2l0.8-0.1L64.3,74.2z M62.8,74.5l-0.8,0.1l0-0.2l0.8-0.1L62.8,74.5z          M61.3,74.7l-0.8,0.1l0-0.2l0.8-0.1L61.3,74.7z M59.8,74.9L59,75l0-0.2l0.8-0.1L59.8,74.9z M58.3,75.2l-0.8,0.1l0-0.2         l0.8-0.1L58.3,75.2z M56.7,75.4L56,75.5l0-0.2l0.8-0.1L56.7,75.4z M55.2,75.6l-0.8,0.1l0-0.2l0.8-0.1L55.2,75.6z M53.7,75.9         L52.9,76l0-0.2l0.8-0.1L53.7,75.9z M52.2,76.1l-0.8,0.1l0-0.2l0.8-0.1L52.2,76.1z M50.7,76.3l-0.8,0.1l0-0.2l0.8-0.1         L50.7,76.3z M49.1,76.6l-0.8,0.1l0-0.2l0.8-0.1L49.1,76.6z M47.6,76.8l-0.8,0.1l0-0.2l0.8-0.1L47.6,76.8z M46.1,77l-0.8,0.1         l0-0.2l0.8-0.1L46.1,77z M44.6,77.3l-0.8,0.1l0-0.2l0.8-0.1L44.6,77.3z M43.1,77.5l-0.8,0.1l0-0.2l0.8-0.1L43.1,77.5z          M41.5,77.7l-0.8,0.1l0-0.2l0.8-0.1L41.5,77.7z M40,78l-0.8,0.1l0-0.2l0.8-0.1L40,78z M38.5,78.2l-0.8,0.1l0-0.2l0.8-0.1         L38.5,78.2z M37,78.4l-0.8,0.1l0-0.2l0.8-0.1L37,78.4z M35.5,78.7l-0.8,0.1l0-0.2l0.8-0.1L35.5,78.7z M33.9,78.9L33.2,79         l0-0.2l0.8-0.1L33.9,78.9z" />
						</g>
					</g>
				</g>
				<g>
					<g>
						<g>
							<g>
								<path class="st1" d="M59.4,21.5c-2.6-3.2-6.3-5.4-10.3-6.6c-4.3-1.2-8.5-0.8-12.9-0.7c1.8,6.1,3.9,13.9,9.1,18          c3,2.4,6.9,3.7,10.8,3.8c1.4,0,2.8-0.1,4.2-0.5c0.2-0.1,0.5-0.1,0.7-0.2c-4-5.3-9-9.7-14.8-12.9c-0.4-0.2-0.5-0.7-0.3-1.1          c0.2-0.4,0.7-0.5,1.1-0.3c6,3.3,11.3,8,15.4,13.5c0.6-0.5,0.9-1.2,1.1-1.7C64.9,28.4,59.5,21.6,59.4,21.5z" />
							</g>
						</g>
					</g>
					<g>
						<g>
							<g>
								<path class="st1" d="M68.9,0c0,0-2.3,2.3-2.5,2.5c-2.9,3-6.3,6.8-6.3,11c0,2.9,0.8,5.9,2.5,8.9c0.1,0.1,0.1,0.2,0.2,0.3          c0.6,1,1.4,2.5,2.9,2.7c0.1,0,0.1,0,0.2,0c-1.5-4.4-1.5-9.3,0.1-13.8c0.2-0.4,0.6-0.7,1.1-0.5c0.5,0.1,0.7,0.6,0.5,1          c-1.5,4.2-1.4,8.8,0,12.9c0.3-0.1,0.6-0.3,0.9-0.6c1.5-1.3,2.7-3.1,3.7-5.4c0.1-0.3,0.2-0.6,0.3-0.9          C74.9,11.7,68.9,0,68.9,0z" />
							</g>
						</g>
					</g>
				</g>
			</g>
		</g>
	</g>
</g>
</svg>