<?xml version="1.0" encoding="utf-8"?>
<svg version="1.1" id="Capa_1" xmlns="http://www.w3.org/2000/svg" xmlns:xlink="http://www.w3.org/1999/xlink" x="0px" y="0px"
	 viewBox="0 0 130 130" style="enable-background:new 0 0 130 130;" xml:space="preserve">
<style type="text/css">
	.st0{opacity:0.72;fill:#FFFFFF;}
	.st1{fill:#213760;}
	.st2{fill:#A5B549;}
</style>
<g>
	<path class="st0" d="M75.3,18.2c-2.3,1.6-4.2,8.6-2.9,8.9c-1.2-0.4-2.7-0.7-3.6,0.2c-0.4,0.4-0.6,1.1-0.6,1.7
		c-0.5,4.4-2.3,7.6-7.2,8.8c-9.7,2.4-21.8-2.7-26.9-11.2C18.6,36.3,9.8,52.2,9.8,71.7c0,30.4,24.7,55.1,55.1,55.1
		c30.4,0,55.1-24.7,55.1-55.1c0-17.9-9-35-23.7-45.2c-3.9-2.7-8.2-4.9-12.7-6.5c-2.2-0.8-4.8-2.4-7.3-2.2
		C76,17.7,75.7,17.9,75.3,18.2z"/>
	<g>
		<g>
			<g>
				<path class="st1" d="M77.2,13.5c0.1,1.4,0,2.9-0.2,4.2c21.3,4.8,38.7,22.2,42.2,45.1c4.6,29.8-16,57.8-45.8,62.4
					c-29.8,4.6-57.8-16-62.4-45.8c-3.4-22,6.9-43,24.5-54.4c-0.5-1.3-1-2.7-1.5-4C14.5,33.1,3.1,56,6.8,80
					c4.9,32.1,35.1,54.2,67.2,49.3c32.1-4.9,54.2-35.1,49.3-67.2C119.4,37.3,100.4,18.4,77.2,13.5z"/>
			</g>
			<g>
				<g>
					<g>
						<path class="st2" d="M59.4,21.5c-2.6-3.2-6.3-5.4-10.3-6.6c-4.3-1.2-8.5-0.8-12.9-0.7c1.8,6.1,3.9,13.9,9.1,18
							c3,2.4,6.9,3.7,10.8,3.8c1.4,0,2.8-0.1,4.2-0.5c0.2-0.1,0.5-0.1,0.7-0.2c-4-5.3-9-9.7-14.8-12.9c-0.4-0.2-0.5-0.7-0.3-1.1
							c0.2-0.4,0.7-0.5,1.1-0.3c6,3.3,11.3,8,15.4,13.5c0.6-0.5,0.9-1.2,1.1-1.7C64.9,28.4,59.5,21.6,59.4,21.5z"/>
					</g>
				</g>
				<g>
					<g>
						<path class="st2" d="M68.9,0c0,0-2.3,2.3-2.5,2.5c-2.9,3-6.3,6.8-6.3,11c0,2.9,0.8,5.9,2.5,8.9c0.1,0.1,0.1,0.2,0.2,0.3
							c0.6,1,1.4,2.5,2.9,2.7c0.1,0,0.1,0,0.2,0c-1.5-4.4-1.5-9.3,0.1-13.8c0.2-0.4,0.6-0.7,1.1-0.5c0.5,0.1,0.7,0.6,0.5,1
							c-1.5,4.2-1.4,8.8,0,12.9c0.3-0.1,0.6-0.3,0.9-0.6c1.5-1.3,2.7-3.1,3.7-5.4c0.1-0.3,0.2-0.6,0.3-0.9C74.9,11.7,68.9,0,68.9,0z
							"/>
					</g>
				</g>
			</g>
			<g>
				<g>
					<path class="st1" d="M28.9,86.9c0.3,1.7-0.3,2.9-1.7,3.5l3.3,3.3l-2.2,0.3l-3-3.1l-2.3,0.3l0.5,3.5l-1.7,0.3l-1.6-10.3l3.8-0.6
						c1.6-0.2,2.7-0.1,3.5,0.3C28.2,85,28.7,85.8,28.9,86.9z M26.8,88.7c0.3-0.4,0.4-0.9,0.3-1.5c-0.1-0.7-0.4-1.1-0.8-1.3
						c-0.4-0.2-1.1-0.2-2-0.1l-2.2,0.3l0.6,3.7l2.2-0.3C25.8,89.4,26.5,89.1,26.8,88.7z"/>
					<path class="st1" d="M39,89.2l-6.1,0.9c0.1,0.6,0.5,1,1,1.3c0.5,0.3,1.1,0.4,1.7,0.3c1-0.2,1.7-0.6,2.1-1.3l1.1,0.9
						c-0.7,1-1.7,1.6-3.1,1.8c-1.1,0.2-2.1-0.1-3-0.7c-0.9-0.6-1.4-1.5-1.6-2.8c-0.2-1.2,0.1-2.3,0.7-3.1c0.7-0.8,1.5-1.3,2.6-1.5
						c1.1-0.2,2,0,2.9,0.5c0.8,0.5,1.4,1.4,1.5,2.5L39,89.2z M32.7,88.9l4.5-0.7c-0.1-0.7-0.4-1.1-0.8-1.4c-0.5-0.3-1-0.4-1.6-0.3
						c-0.6,0.1-1.1,0.4-1.5,0.8C32.7,87.7,32.6,88.2,32.7,88.9z"/>
					<path class="st1" d="M46.5,88.9c0.1,0.7-0.1,1.4-0.5,1.9c-0.5,0.5-1.1,0.9-2,1c-0.6,0.1-1.2,0.1-1.8,0
						c-0.6-0.1-1.2-0.3-1.8-0.6l0.6-1.4c1,0.5,2,0.8,2.8,0.6c0.4-0.1,0.7-0.2,0.8-0.4c0.2-0.2,0.3-0.4,0.2-0.7
						c-0.1-0.4-0.6-0.7-1.7-0.8c-0.1,0-0.1,0-0.2,0c-1.7-0.2-2.6-0.8-2.8-1.8c-0.1-0.7,0.1-1.3,0.6-1.9c0.5-0.5,1.2-0.9,2.1-1
						c0.9-0.1,1.8,0,2.7,0.4l-0.4,1.3c-0.7-0.3-1.4-0.4-2.2-0.3c-0.4,0.1-0.7,0.2-0.9,0.4c-0.2,0.2-0.3,0.4-0.3,0.7
						c0,0.3,0.2,0.4,0.5,0.5c0.2,0.1,0.4,0.1,0.8,0.1c0.3,0,0.6,0.1,0.9,0.1c0.3,0,0.5,0.1,0.8,0.2c0.2,0.1,0.5,0.2,0.8,0.3
						C46,87.7,46.4,88.2,46.5,88.9z"/>
					<path class="st1" d="M51.7,82.4c1-0.2,2,0.1,2.9,0.7c0.9,0.6,1.4,1.5,1.6,2.7c0.2,1.2,0,2.2-0.7,3.1c-0.6,0.9-1.4,1.4-2.4,1.5
						c-1,0.2-1.9-0.1-2.9-0.9l0.6,4l-1.6,0.3l-1.6-10.7l1.6-0.3l0.2,1.4C49.9,83.2,50.6,82.6,51.7,82.4z M49.7,86.8
						c0.1,0.7,0.4,1.3,1,1.7c0.5,0.4,1.1,0.6,1.8,0.5s1.2-0.4,1.6-1c0.4-0.5,0.6-1.2,0.4-1.9c-0.1-0.7-0.4-1.3-1-1.8
						c-0.5-0.4-1.1-0.6-1.8-0.5c-0.7,0.1-1.2,0.4-1.5,1C49.7,85.4,49.6,86.1,49.7,86.8z"/>
					<path class="st1" d="M65,87.4c-0.7,0.9-1.6,1.4-2.8,1.6C61,89.2,60,89,59.1,88.3c-0.9-0.7-1.4-1.6-1.6-2.7
						c-0.2-1.1,0.1-2.1,0.7-3c0.7-0.9,1.6-1.4,2.8-1.6c1.2-0.2,2.2,0.1,3.1,0.7c0.9,0.7,1.4,1.6,1.6,2.7
						C65.9,85.5,65.6,86.5,65,87.4z M60.1,87.1c0.5,0.4,1.2,0.6,1.9,0.4c0.7-0.1,1.3-0.4,1.7-1c0.4-0.5,0.5-1.2,0.4-2
						c-0.1-0.8-0.4-1.3-1-1.7c-0.5-0.4-1.2-0.6-1.9-0.4c-0.7,0.1-1.3,0.4-1.7,1c-0.4,0.5-0.5,1.2-0.4,2
						C59.2,86.1,59.6,86.7,60.1,87.1z"/>
					<path class="st1" d="M69.2,83.5l0.6,4.2L68.2,88L67,80.2l1.6-0.3l0.2,1.4c0.2-0.5,0.5-1,0.9-1.3c0.4-0.3,0.9-0.6,1.4-0.6
						c0.9-0.1,1.6,0,2.3,0.5c0.6,0.5,1,1.2,1.2,2.2l0.7,4.8l-1.6,0.3l-0.7-4.3c-0.2-1.4-0.9-2.1-2.1-1.9c-0.6,0.1-1,0.4-1.4,0.8
						C69.2,82.2,69,82.8,69.2,83.5z"/>
					<path class="st1" d="M82.9,83.3c0.1,0.7-0.1,1.4-0.5,1.9c-0.5,0.5-1.1,0.9-2,1c-0.6,0.1-1.2,0.1-1.8,0
						c-0.6-0.1-1.2-0.3-1.8-0.6l0.6-1.4c1,0.5,2,0.8,2.8,0.6c0.4-0.1,0.7-0.2,0.8-0.4c0.2-0.2,0.3-0.4,0.2-0.7
						c-0.1-0.4-0.6-0.7-1.7-0.8c-0.1,0-0.1,0-0.2,0c-1.7-0.2-2.6-0.8-2.8-1.8c-0.1-0.7,0.1-1.3,0.6-1.9c0.5-0.5,1.2-0.9,2.1-1
						c0.9-0.1,1.8,0,2.7,0.4l-0.4,1.3c-0.7-0.3-1.4-0.4-2.2-0.3c-0.4,0.1-0.7,0.2-0.9,0.4c-0.2,0.2-0.3,0.4-0.3,0.7
						c0,0.3,0.2,0.4,0.5,0.5c0.2,0.1,0.4,0.1,0.8,0.1c0.3,0,0.6,0.1,0.9,0.1c0.3,0,0.5,0.1,0.8,0.2c0.2,0.1,0.5,0.2,0.8,0.3
						C82.4,82.1,82.7,82.6,82.9,83.3z"/>
					<path class="st1" d="M91.4,84.4l-1.5,0.2l-0.2-1c-0.5,0.9-1.3,1.4-2.4,1.6c-0.8,0.1-1.5,0-2.1-0.4c-0.6-0.4-1-1-1.1-1.7
						c-0.1-0.8,0.1-1.4,0.6-1.9c0.5-0.5,1.2-0.8,2.2-0.9l2.1-0.3l0-0.3c-0.2-1-0.8-1.5-2-1.3c-0.7,0.1-1.4,0.5-2.1,1.1L84,78.6
						c0.8-0.9,1.9-1.4,3.1-1.6c0.9-0.1,1.7,0,2.4,0.4c0.7,0.4,1.1,1.1,1.2,2.1L91.4,84.4z M89.3,81.8l-0.1-0.7l-1.9,0.3
						c-1.2,0.2-1.7,0.6-1.6,1.4c0.1,0.4,0.3,0.7,0.6,0.8c0.3,0.2,0.7,0.2,1.3,0.1c0.5-0.1,1-0.3,1.3-0.7
						C89.3,82.7,89.4,82.3,89.3,81.8z"/>
					<path class="st1" d="M96.7,75.5c1-0.2,2,0.1,2.9,0.7c0.9,0.6,1.4,1.5,1.6,2.7s0,2.2-0.7,3.1c-0.6,0.9-1.4,1.4-2.4,1.5
						c-1,0.2-1.9-0.1-2.9-0.9l0.2,1.2l-1.6,0.3L92,73.2l1.6-0.3l0.7,4.5C94.9,76.3,95.6,75.7,96.7,75.5z M94.7,79.9
						c0.1,0.7,0.4,1.3,1,1.7c0.5,0.4,1.1,0.6,1.8,0.5c0.6-0.1,1.2-0.4,1.6-1c0.4-0.5,0.6-1.2,0.4-1.9c-0.1-0.7-0.4-1.3-1-1.8
						c-0.5-0.4-1.1-0.6-1.8-0.5c-0.7,0.1-1.2,0.4-1.5,1C94.7,78.5,94.6,79.2,94.7,79.9z"/>
					<path class="st1" d="M105.2,82.3l-1.6,0.3l-1.7-10.9l1.6-0.3L105.2,82.3z"/>
					<path class="st1" d="M114.4,77.6l-6.1,0.9c0.1,0.6,0.5,1,1,1.3c0.5,0.3,1.1,0.4,1.7,0.3c1-0.2,1.7-0.6,2.1-1.3l1.1,0.9
						c-0.7,1-1.7,1.6-3.1,1.8c-1.1,0.2-2.1-0.1-3-0.7c-0.9-0.6-1.4-1.5-1.6-2.8c-0.2-1.2,0.1-2.3,0.7-3.1c0.7-0.8,1.5-1.3,2.6-1.5
						c1.1-0.2,2,0,2.9,0.5c0.8,0.5,1.4,1.4,1.5,2.5L114.4,77.6z M108.1,77.3l4.5-0.7c-0.1-0.7-0.4-1.1-0.8-1.4
						c-0.5-0.3-1-0.4-1.6-0.3c-0.6,0.1-1.1,0.4-1.5,0.8C108.1,76.1,108,76.7,108.1,77.3z"/>
				</g>
				<g>
					<path class="st1" d="M29.5,60.2c0.4,0.4,1,0.5,1.6,0.4c0.6-0.1,1.1-0.4,1.4-0.9c0.3-0.5,0.4-1.1,0.3-1.9l-0.7-4.5l1.4-0.2
						l0.7,4.6c0.2,1.2,0,2.1-0.6,2.9c-0.5,0.7-1.3,1.2-2.3,1.3c-1,0.2-1.9,0-2.6-0.6c-0.7-0.5-1.2-1.4-1.4-2.6l-0.7-4.6L28,54
						l0.7,4.5C28.8,59.3,29.1,59.8,29.5,60.2z"/>
					<path class="st1" d="M37.5,57.5l0.5,3.4L36.7,61l-1-6.2l1.3-0.2l0.2,1.1c0.2-0.4,0.4-0.8,0.7-1c0.3-0.3,0.7-0.4,1.1-0.5
						c0.7-0.1,1.3,0,1.8,0.4c0.5,0.4,0.8,0.9,0.9,1.8l0.6,3.8l-1.3,0.2l-0.5-3.4c-0.2-1.1-0.7-1.6-1.7-1.5c-0.5,0.1-0.8,0.3-1.1,0.6
						C37.5,56.4,37.4,56.9,37.5,57.5z"/>
					<path class="st1" d="M49.8,52.5c0.8-0.1,1.6,0.1,2.3,0.5c0.7,0.5,1.1,1.2,1.2,2.2c0.1,1,0,1.8-0.5,2.5
						c-0.5,0.7-1.1,1.1-1.9,1.2c-0.8,0.1-1.5-0.1-2.3-0.7l0.5,3.2l-1.3,0.2l-1.3-8.5l1.3-0.2l0.2,1.1C48.3,53.2,48.9,52.7,49.8,52.5
						z M48.2,56.1c0.1,0.6,0.3,1,0.8,1.4c0.4,0.3,0.9,0.4,1.4,0.4c0.5-0.1,0.9-0.3,1.3-0.8c0.3-0.4,0.4-0.9,0.3-1.5
						c-0.1-0.6-0.4-1.1-0.8-1.4c-0.4-0.3-0.9-0.5-1.4-0.4c-0.5,0.1-0.9,0.3-1.2,0.8C48.2,55,48.1,55.5,48.2,56.1z"/>
					<path class="st1" d="M57.8,52.7c-0.6,0.1-1.1,0.4-1.4,0.9c-0.3,0.5-0.3,1.1-0.2,1.8l0.4,2.7l-1.3,0.2l-1-6.2l1.3-0.2l0.2,1.2
						c0.2-0.4,0.4-0.8,0.7-1.1c0.3-0.3,0.7-0.5,1.1-0.6L57.8,52.7C57.8,52.7,57.8,52.7,57.8,52.7z"/>
					<path class="st1" d="M64.9,55.8c-0.5,0.7-1.3,1.1-2.2,1.3c-0.9,0.1-1.8,0-2.5-0.6c-0.7-0.5-1.1-1.2-1.3-2.1
						c-0.1-0.9,0.1-1.7,0.6-2.4c0.5-0.7,1.3-1.1,2.2-1.3c0.9-0.1,1.8,0,2.5,0.6c0.7,0.5,1.1,1.2,1.3,2.1
						C65.6,54.3,65.4,55.1,64.9,55.8z M61,55.6c0.4,0.3,0.9,0.4,1.5,0.4c0.6-0.1,1-0.3,1.3-0.8c0.3-0.4,0.4-1,0.3-1.6
						c-0.1-0.6-0.4-1.1-0.8-1.4c-0.4-0.3-0.9-0.4-1.5-0.4c-0.6,0.1-1,0.3-1.3,0.8c-0.3,0.4-0.4,1-0.3,1.6
						C60.3,54.8,60.6,55.3,61,55.6z"/>
					<path class="st1" d="M68.4,58.7c-0.6,0.1-1.1,0-1.6-0.4l0.4-1.2c0.3,0.2,0.6,0.3,0.9,0.3c0.3,0,0.5-0.2,0.7-0.4
						c0.2-0.2,0.2-0.5,0.2-0.7c0-0.1-1.2-2.1-3.5-6l1.4-0.2l2.6,4.3l1.2-4.9l1.4-0.2l-1.9,7.8c-0.1,0.4-0.3,0.8-0.6,1.1
						C69.2,58.4,68.9,58.6,68.4,58.7z"/>
					<path class="st1" d="M79.4,51.9l-4.9,0.7c0.1,0.4,0.4,0.8,0.8,1c0.4,0.2,0.9,0.3,1.4,0.2c0.8-0.1,1.3-0.5,1.7-1l0.9,0.7
						c-0.6,0.8-1.4,1.3-2.5,1.4c-0.9,0.1-1.7,0-2.4-0.5c-0.7-0.5-1.1-1.2-1.3-2.2c-0.1-1,0-1.8,0.6-2.5c0.5-0.7,1.2-1.1,2.1-1.2
						c0.8-0.1,1.6,0,2.3,0.4c0.7,0.4,1.1,1.1,1.2,2L79.4,51.9z M74.4,51.6l3.6-0.5c-0.1-0.5-0.3-0.9-0.7-1.1
						c-0.4-0.2-0.8-0.3-1.3-0.2c-0.5,0.1-0.9,0.3-1.2,0.6C74.4,50.7,74.3,51.1,74.4,51.6z"/>
					<path class="st1" d="M84,53.8c-0.9,0.1-1.7,0-2.4-0.5c-0.7-0.5-1.1-1.2-1.3-2.2c-0.1-0.9,0.1-1.8,0.6-2.5
						c0.6-0.7,1.3-1.1,2.2-1.3c0.9-0.1,1.8,0.1,2.5,0.6l-0.6,1.1c-0.6-0.4-1.2-0.5-1.7-0.5c-0.5,0.1-1,0.3-1.3,0.8
						c-0.3,0.4-0.5,0.9-0.4,1.5s0.4,1,0.8,1.4s1,0.5,1.6,0.4c0.6-0.1,1.1-0.4,1.5-1l0.9,0.7C85.8,53.2,85,53.7,84,53.8z"/>
					<path class="st1" d="M88.7,47.7l0.5,3.2c0,0.3,0.2,0.5,0.3,0.7c0.2,0.2,0.4,0.2,0.7,0.2c0.3,0,0.5-0.2,0.7-0.5l0.7,0.8
						c-0.4,0.5-0.9,0.8-1.4,0.9c-0.6,0.1-1.1,0-1.5-0.4c-0.5-0.3-0.7-0.8-0.8-1.5l-0.5-3.1l-0.8,0.1L86.5,47l0.8-0.1l-0.3-2l1.3-0.2
						l0.3,2l1.6-0.3l0.2,1.1L88.7,47.7z"/>
					<path class="st1" d="M97.8,50.8c-0.5,0.7-1.3,1.1-2.2,1.3c-0.9,0.1-1.8,0-2.5-0.6c-0.7-0.5-1.1-1.2-1.3-2.1
						c-0.1-0.9,0.1-1.7,0.6-2.4c0.5-0.7,1.3-1.1,2.2-1.3c0.9-0.1,1.8,0,2.5,0.6c0.7,0.5,1.1,1.2,1.3,2.1
						C98.6,49.3,98.4,50.1,97.8,50.8z M94,50.5c0.4,0.3,0.9,0.4,1.5,0.4c0.6-0.1,1-0.3,1.3-0.8c0.3-0.4,0.4-1,0.3-1.6
						c-0.1-0.6-0.4-1.1-0.8-1.4c-0.4-0.3-0.9-0.4-1.5-0.4c-0.6,0.1-1,0.3-1.3,0.8c-0.3,0.4-0.4,1-0.3,1.6
						C93.3,49.8,93.5,50.2,94,50.5z"/>
				</g>
				<g>
					<path class="st1" d="M20.2,78.2l-0.5,1.9l-1.4,0.2l2.2-8.3l1.4-0.2l4.6,7.2l-1.4,0.2l-1-1.6L20.2,78.2z M23.4,76.5l-1.9-3
						l-0.9,3.4L23.4,76.5z"/>
					<path class="st1" d="M28.2,75.5l0.5,3.2l-1.2,0.2L26.5,73l1.2-0.2l0.2,1.1c0.1-0.4,0.3-0.7,0.7-1c0.3-0.3,0.7-0.4,1.1-0.5
						c0.9-0.1,1.6,0.1,2.1,0.9c0.5-0.9,1.1-1.4,2-1.5c0.7-0.1,1.2,0,1.7,0.4c0.5,0.3,0.8,0.9,0.9,1.7l0.6,3.6l-1.2,0.2l-0.5-3.2
						c-0.2-1.1-0.7-1.6-1.6-1.4c-0.4,0.1-0.8,0.3-1,0.6c-0.3,0.3-0.4,0.7-0.3,1.3l0.5,3.3l-1.2,0.2L31,75.1c-0.1-0.6-0.2-1-0.5-1.2
						c-0.2-0.2-0.6-0.3-1-0.2s-0.8,0.3-1.1,0.6C28.2,74.6,28.1,75,28.2,75.5z"/>
					<path class="st1" d="M40.9,70.7c0.8-0.1,1.5,0,2.2,0.5c0.6,0.5,1,1.1,1.2,2c0.1,0.9,0,1.7-0.5,2.3c-0.5,0.7-1.1,1-1.8,1.2
						c-0.7,0.1-1.5-0.1-2.1-0.7l0.1,0.9l-1.2,0.2L37.4,69l1.2-0.2l0.5,3.4C39.5,71.3,40.1,70.9,40.9,70.7z M39.4,74.1
						c0.1,0.6,0.3,1,0.7,1.3c0.4,0.3,0.8,0.4,1.3,0.3c0.5-0.1,0.9-0.3,1.2-0.7s0.4-0.9,0.3-1.5c-0.1-0.6-0.3-1-0.7-1.3
						c-0.4-0.3-0.9-0.4-1.4-0.4s-0.9,0.3-1.2,0.8C39.4,73,39.3,73.5,39.4,74.1z"/>
					<path class="st1" d="M45.1,69c-0.2-0.1-0.3-0.3-0.3-0.5c0-0.2,0-0.4,0.1-0.6c0.1-0.2,0.3-0.3,0.5-0.3c0.2,0,0.4,0,0.6,0.1
						c0.2,0.1,0.3,0.3,0.3,0.5c0,0.2,0,0.4-0.1,0.6c-0.1,0.2-0.3,0.3-0.5,0.3C45.4,69.2,45.2,69.1,45.1,69z M47.3,75.9l-1.2,0.2
						l-0.9-5.9l1.2-0.2L47.3,75.9z"/>
					<path class="st1" d="M54.2,72.4l-4.6,0.7c0.1,0.4,0.3,0.7,0.7,0.9s0.8,0.3,1.3,0.2c0.7-0.1,1.3-0.4,1.6-1l0.8,0.7
						c-0.5,0.8-1.3,1.2-2.3,1.4c-0.8,0.1-1.6,0-2.2-0.5c-0.7-0.5-1.1-1.2-1.2-2.1c-0.1-0.9,0-1.7,0.5-2.3c0.5-0.6,1.2-1,2-1.1
						c0.8-0.1,1.5,0,2.2,0.4c0.6,0.4,1,1,1.1,1.9L54.2,72.4z M49.4,72.1l3.4-0.5c-0.1-0.5-0.3-0.9-0.6-1.1c-0.4-0.2-0.8-0.3-1.2-0.2
						c-0.5,0.1-0.8,0.3-1.2,0.6C49.5,71.2,49.4,71.6,49.4,72.1z"/>
					<path class="st1" d="M56.7,71.2l0.5,3.2l-1.2,0.2L55,68.7l1.2-0.2l0.2,1.1c0.1-0.4,0.4-0.7,0.7-1c0.3-0.3,0.7-0.4,1.1-0.5
						c0.7-0.1,1.2,0,1.7,0.4c0.5,0.3,0.8,0.9,0.9,1.7l0.6,3.6l-1.2,0.2l-0.5-3.2c-0.2-1.1-0.7-1.6-1.6-1.4c-0.4,0.1-0.8,0.3-1.1,0.6
						C56.7,70.2,56.6,70.6,56.7,71.2z"/>
					<path class="st1" d="M63.8,68.3l0.5,3c0,0.3,0.2,0.5,0.3,0.6c0.2,0.1,0.4,0.2,0.7,0.2c0.3,0,0.5-0.2,0.7-0.5l0.6,0.8
						c-0.4,0.5-0.8,0.7-1.4,0.8c-0.5,0.1-1,0-1.4-0.3c-0.4-0.3-0.7-0.8-0.8-1.4l-0.5-3l-0.7,0.1l-0.2-1l0.7-0.1l-0.3-1.8l1.2-0.2
						l0.3,1.8l1.5-0.2l0.2,1L63.8,68.3z"/>
					<path class="st1" d="M72.4,72l-1.1,0.2l-0.1-0.8c-0.4,0.7-1,1-1.8,1.2c-0.6,0.1-1.1,0-1.6-0.3C67.3,72,67,71.6,66.9,71
						c-0.1-0.6,0.1-1,0.4-1.4c0.4-0.4,0.9-0.6,1.7-0.7l1.6-0.2l0-0.2c-0.1-0.8-0.6-1.1-1.5-1c-0.5,0.1-1.1,0.4-1.6,0.9l-0.7-0.7
						c0.6-0.7,1.4-1.1,2.3-1.2c0.7-0.1,1.3,0,1.8,0.3c0.5,0.3,0.8,0.8,0.9,1.6L72.4,72z M70.8,70l-0.1-0.5l-1.4,0.2
						c-0.9,0.1-1.3,0.5-1.2,1c0,0.3,0.2,0.5,0.4,0.6c0.2,0.1,0.6,0.1,1,0.1c0.4-0.1,0.7-0.2,1-0.5S70.9,70.4,70.8,70z"/>
					<path class="st1" d="M75.4,71.6l-1.2,0.2l-1.3-8.2l1.2-0.2L75.4,71.6z"/>
					<path class="st1" d="M77.9,67.9l0.5,3.2l-1.2,0.2l-0.9-5.9l1.2-0.2l0.2,1.1c0.1-0.4,0.3-0.7,0.7-1c0.3-0.3,0.7-0.4,1.1-0.5
						c0.9-0.1,1.6,0.1,2.1,0.9c0.5-0.9,1.1-1.4,2-1.5c0.7-0.1,1.2,0,1.7,0.4c0.5,0.3,0.8,0.9,0.9,1.7l0.6,3.6L85.4,70l-0.5-3.2
						c-0.2-1.1-0.7-1.6-1.6-1.4c-0.4,0.1-0.8,0.3-1,0.6c-0.3,0.3-0.4,0.7-0.3,1.3l0.5,3.3l-1.2,0.2l-0.5-3.2c-0.1-0.6-0.2-1-0.5-1.2
						c-0.2-0.2-0.6-0.3-1-0.2c-0.4,0.1-0.8,0.3-1.1,0.6C77.9,66.9,77.8,67.4,77.9,67.9z"/>
					<path class="st1" d="M93.5,66.3L88.9,67c0.1,0.4,0.3,0.7,0.7,0.9c0.4,0.2,0.8,0.3,1.3,0.2c0.7-0.1,1.3-0.4,1.6-1l0.8,0.7
						c-0.5,0.8-1.3,1.2-2.3,1.4c-0.8,0.1-1.6,0-2.2-0.5c-0.7-0.5-1.1-1.2-1.2-2.1c-0.1-0.9,0-1.7,0.5-2.3c0.5-0.6,1.2-1,2-1.1
						c0.8-0.1,1.5,0,2.2,0.4c0.6,0.4,1,1,1.1,1.9L93.5,66.3z M88.7,66.1l3.4-0.5c-0.1-0.5-0.3-0.9-0.6-1.1c-0.4-0.2-0.8-0.3-1.2-0.2
						c-0.5,0.1-0.8,0.3-1.2,0.6C88.8,65.2,88.6,65.6,88.7,66.1z"/>
					<path class="st1" d="M95.9,65.1l0.5,3.2l-1.2,0.2l-0.9-5.9l1.2-0.2l0.2,1.1c0.1-0.4,0.4-0.7,0.7-1c0.3-0.3,0.7-0.4,1.1-0.5
						c0.7-0.1,1.2,0,1.7,0.4c0.5,0.3,0.8,0.9,0.9,1.7l0.6,3.6l-1.2,0.2l-0.5-3.2c-0.2-1.1-0.7-1.6-1.6-1.4c-0.4,0.1-0.8,0.3-1.1,0.6
						C96,64.2,95.9,64.6,95.9,65.1z"/>
					<path class="st1" d="M103,62.3l0.5,3c0,0.3,0.2,0.5,0.3,0.6c0.2,0.1,0.4,0.2,0.7,0.2c0.3,0,0.5-0.2,0.7-0.5l0.6,0.8
						c-0.4,0.5-0.8,0.7-1.4,0.8c-0.5,0.1-1,0-1.4-0.3c-0.4-0.3-0.7-0.8-0.8-1.4l-0.5-3l-0.7,0.1l-0.2-1l0.7-0.1l-0.3-1.8l1.2-0.2
						l0.3,1.8l1.5-0.2l0.2,1L103,62.3z"/>
					<path class="st1" d="M112,63.5l-4.6,0.7c0.1,0.4,0.3,0.7,0.7,0.9c0.4,0.2,0.8,0.3,1.3,0.2c0.7-0.1,1.3-0.4,1.6-1l0.8,0.7
						c-0.5,0.8-1.3,1.2-2.3,1.4c-0.8,0.1-1.6,0-2.2-0.5c-0.7-0.5-1.1-1.2-1.2-2.1c-0.1-0.9,0-1.7,0.5-2.3c0.5-0.6,1.2-1,2-1.1
						c0.8-0.1,1.5,0,2.2,0.4c0.6,0.4,1,1,1.1,1.9L112,63.5z M107.2,63.2l3.4-0.5c-0.1-0.5-0.3-0.9-0.6-1.1c-0.4-0.2-0.8-0.3-1.2-0.2
						c-0.5,0.1-0.8,0.3-1.2,0.6C107.3,62.3,107.2,62.7,107.2,63.2z"/>
				</g>
				<g>
					<path class="st1" d="M109.6,55.5l-0.3,0l0-0.3l0.3,0L109.6,55.5z M108.3,55.7l-1,0.2l0-0.3l1-0.2L108.3,55.7z M106.3,56l-1,0.2
						l0-0.3l1-0.2L106.3,56z M104.2,56.3l-1,0.2l0-0.3l1-0.2L104.2,56.3z M102.2,56.6l-1,0.2l0-0.3l1-0.2L102.2,56.6z M100.1,56.9
						l-1,0.2l0-0.3l1-0.2L100.1,56.9z M98.1,57.3l-1,0.2l0-0.3l1-0.2L98.1,57.3z M96,57.6l-1,0.2l0-0.3l1-0.2L96,57.6z M94,57.9
						L93,58l0-0.3l1-0.2L94,57.9z M91.9,58.2l-1,0.2l0-0.3l1-0.2L91.9,58.2z M89.9,58.5l-1,0.2l0-0.3l1-0.2L89.9,58.5z M87.9,58.8
						l-1,0.2l0-0.3l1-0.2L87.9,58.8z M85.8,59.1l-1,0.2l0-0.3l1-0.2L85.8,59.1z M83.8,59.5l-1,0.2l0-0.3l1-0.2L83.8,59.5z
						 M81.7,59.8l-1,0.2l0-0.3l1-0.2L81.7,59.8z M79.7,60.1l-1,0.2l0-0.3l1-0.2L79.7,60.1z M77.6,60.4l-1,0.2l0-0.3l1-0.2L77.6,60.4
						z M75.6,60.7l-1,0.2l0-0.3l1-0.2L75.6,60.7z M73.5,61l-1,0.2l0-0.3l1-0.2L73.5,61z M71.5,61.3l-1,0.2l0-0.3l1-0.2L71.5,61.3z
						 M69.4,61.7l-1,0.2l0-0.3l1-0.2L69.4,61.7z M67.4,62l-1,0.2l0-0.3l1-0.2L67.4,62z M65.4,62.3l-1,0.2l0-0.3l1-0.2L65.4,62.3z
						 M63.3,62.6l-1,0.2l0-0.3l1-0.2L63.3,62.6z M61.3,62.9l-1,0.2l0-0.3l1-0.2L61.3,62.9z M59.2,63.2l-1,0.2l0-0.3l1-0.2L59.2,63.2
						z M57.2,63.5l-1,0.2l0-0.3l1-0.2L57.2,63.5z M55.1,63.9l-1,0.2l0-0.3l1-0.2L55.1,63.9z M53.1,64.2l-1,0.2l0-0.3l1-0.2
						L53.1,64.2z M51,64.5l-1,0.2l0-0.3l1-0.2L51,64.5z M49,64.8L48,65l0-0.3l1-0.2L49,64.8z M46.9,65.1l-1,0.2l0-0.3l1-0.2
						L46.9,65.1z M44.9,65.4l-1,0.2l0-0.3l1-0.2L44.9,65.4z M42.9,65.7l-1,0.2l0-0.3l1-0.2L42.9,65.7z M40.8,66.1l-1,0.2l0-0.3
						l1-0.2L40.8,66.1z M38.8,66.4l-1,0.2l0-0.3l1-0.2L38.8,66.4z M36.7,66.7l-1,0.2l0-0.3l1-0.2L36.7,66.7z M34.7,67l-1,0.2l0-0.3
						l1-0.2L34.7,67z M32.6,67.3l-1,0.2l0-0.3l1-0.2L32.6,67.3z M30.6,67.6l-1,0.2l0-0.3l1-0.2L30.6,67.6z M28.5,67.9l-1,0.2l0-0.3
						l1-0.2L28.5,67.9z M26.5,68.3l-1,0.2l0-0.3l1-0.2L26.5,68.3z M24.4,68.6l-1,0.2l0-0.3l1-0.2L24.4,68.6z M22.4,68.9l-1,0.2
						l0-0.3l1-0.2L22.4,68.9z M20.4,69.2l-1,0.2l0-0.3l1-0.2L20.4,69.2z"/>
				</g>
				<g>
					<path class="st1" d="M114.4,86.6l-0.3,0l0-0.3l0.3,0L114.4,86.6z M113.1,86.8l-1,0.2l0-0.3l1-0.2L113.1,86.8z M111.1,87.2
						l-1,0.2l0-0.3l1-0.2L111.1,87.2z M109,87.5l-1,0.2l0-0.3l1-0.2L109,87.5z M107,87.8l-1,0.2l0-0.3l1-0.2L107,87.8z M104.9,88.1
						l-1,0.2l0-0.3l1-0.2L104.9,88.1z M102.9,88.4l-1,0.2l0-0.3l1-0.2L102.9,88.4z M100.8,88.7l-1,0.2l0-0.3l1-0.2L100.8,88.7z
						 M98.8,89l-1,0.2l0-0.3l1-0.2L98.8,89z M96.7,89.4l-1,0.2l0-0.3l1-0.2L96.7,89.4z M94.7,89.7l-1,0.2l0-0.3l1-0.2L94.7,89.7z
						 M92.6,90l-1,0.2l0-0.3l1-0.2L92.6,90z M90.6,90.3l-1,0.2l0-0.3l1-0.2L90.6,90.3z M88.6,90.6l-1,0.2l0-0.3l1-0.2L88.6,90.6z
						 M86.5,90.9l-1,0.2l0-0.3l1-0.2L86.5,90.9z M84.5,91.2l-1,0.2l0-0.3l1-0.2L84.5,91.2z M82.4,91.6l-1,0.2l0-0.3l1-0.2L82.4,91.6
						z M80.4,91.9l-1,0.2l0-0.3l1-0.2L80.4,91.9z M78.3,92.2l-1,0.2l0-0.3l1-0.2L78.3,92.2z M76.3,92.5l-1,0.2l0-0.3l1-0.2
						L76.3,92.5z M74.2,92.8l-1,0.2l0-0.3l1-0.2L74.2,92.8z M72.2,93.1l-1,0.2l0-0.3l1-0.2L72.2,93.1z M70.1,93.4l-1,0.2l0-0.3
						l1-0.2L70.1,93.4z M68.1,93.8l-1,0.2l0-0.3l1-0.2L68.1,93.8z M66,94.1l-1,0.2l0-0.3l1-0.2L66,94.1z M64,94.4l-1,0.2l0-0.3
						l1-0.2L64,94.4z M62,94.7l-1,0.2l0-0.3l1-0.2L62,94.7z M59.9,95l-1,0.2l0-0.3l1-0.2L59.9,95z M57.9,95.3l-1,0.2l0-0.3l1-0.2
						L57.9,95.3z M55.8,95.6l-1,0.2l0-0.3l1-0.2L55.8,95.6z M53.8,96l-1,0.2l0-0.3l1-0.2L53.8,96z M51.7,96.3l-1,0.2l0-0.3l1-0.2
						L51.7,96.3z M49.7,96.6l-1,0.2l0-0.3l1-0.2L49.7,96.6z M47.6,96.9l-1,0.2l0-0.3l1-0.2L47.6,96.9z M45.6,97.2l-1,0.2l0-0.3
						l1-0.2L45.6,97.2z M43.5,97.5l-1,0.2l0-0.3l1-0.2L43.5,97.5z M41.5,97.8l-1,0.2l0-0.3l1-0.2L41.5,97.8z M39.5,98.2l-1,0.2
						l0-0.3l1-0.2L39.5,98.2z M37.4,98.5l-1,0.2l0-0.3l1-0.2L37.4,98.5z M35.4,98.8l-1,0.2l0-0.3l1-0.2L35.4,98.8z M33.3,99.1
						l-1,0.2l0-0.3l1-0.2L33.3,99.1z M31.3,99.4l-1,0.2l0-0.3l1-0.2L31.3,99.4z M29.2,99.7l-1,0.2l0-0.3l1-0.2L29.2,99.7z M27.2,100
						l-1,0.2l0-0.3l1-0.2L27.2,100z M25.1,100.4l-1,0.2l0-0.3l1-0.2L25.1,100.4z"/>
				</g>
			</g>
			<g>
				<path class="st2" d="M104.6,41.4l1.9-0.3C99.1,30.9,88.2,23.7,75.8,21c-0.2,0.5-0.5,1-0.8,1.5C86.9,25,97.4,31.8,104.6,41.4z"/>
				<path class="st2" d="M109.6,92.7c-6.9,14.1-20.3,24.8-37,27.4c-17,2.6-33.4-3.8-44.2-15.7l-1.9,0.3c11.2,12.8,28.4,19.8,46.3,17
					c17.6-2.7,31.8-14.2,38.7-29.3L109.6,92.7z"/>
				<path class="st2" d="M18.3,54.5c3.6-10.1,10.4-18.9,19.4-24.8c-0.3-0.5-0.6-1-0.8-1.4C27.3,34.6,20.1,44,16.5,54.8L18.3,54.5z"
					/>
			</g>
		</g>
	</g>
</g>
</svg>
